<svg width="219" height="157" viewBox="0 0 219 157" fill="none" xmlns="http://www.w3.org/2000/svg">
<path fill-rule="evenodd" clip-rule="evenodd" d="M17.0772 156.502C17.0772 156.502 -9.30155 120.749 12.6161 82.0401C32.0628 47.6952 54.7359 50.0429 71.3706 63.9804C78.4556 69.9164 98.8825 64.7119 116.268 29.7648C139.978 -17.8937 222.163 11.0113 207.178 84.3351C199.926 119.818 229.248 121.108 214.308 156.578L17.0772 156.502Z" fill="#BACAC2"/>
<path fill-rule="evenodd" clip-rule="evenodd" d="M90.5003 42.8831C79.336 52.81 64.4884 54.3443 57.3375 46.3101C50.1865 38.2758 53.4399 23.7155 64.6042 13.7887C75.7686 3.86177 90.6161 2.32746 97.7672 10.3617C104.918 18.3959 101.665 32.9563 90.5003 42.8831Z" fill="#BACAC2"/>
<path fill-rule="evenodd" clip-rule="evenodd" d="M34.0268 43.5328C30.9586 40.0857 30.4844 35.5013 32.9676 33.2933C35.4508 31.0853 39.9511 32.09 43.0193 35.5371C46.0875 38.9842 46.5618 43.5685 44.0785 45.7765C41.5953 47.9845 37.095 46.98 34.0268 43.5328Z" fill="#BACAC2"/>
<path fill-rule="evenodd" clip-rule="evenodd" d="M205.175 29.6607C204.158 25.1602 205.962 20.9187 209.204 20.1871C212.446 19.4555 215.898 22.5106 216.915 27.0112C217.932 31.5117 216.128 35.7531 212.886 36.4847C209.644 37.2164 206.192 34.1612 205.175 29.6607Z" fill="#BACAC2"/>
<path d="M199.7 59.0185C199.172 57.9677 196.872 56.584 196.708 56.4688C195.176 54.0765 191.673 48.4571 191.273 47.8343C190.774 47.0571 186.265 34.233 186.265 34.233L177.552 32.6064C177.552 32.6064 185.463 48.6836 186.776 50.6335C188.648 53.4451 193.938 57.1684 195.3 58.1021C195.424 58.4897 195.886 59.9176 196.098 60.2353C196.345 60.6047 197.686 61.6315 197.806 61.5883C197.927 61.5451 197.981 61.4309 197.864 61.1901C197.747 60.9492 197.21 60.2401 197.332 60.2362C197.454 60.2324 199.154 62.19 199.618 61.9645C200.081 61.739 200.227 60.0683 199.7 59.0185Z" fill="#E8945B"/>
<path d="M188.609 64.0893C188.609 64.0893 188.32 69.866 187.763 76.8119C187.007 86.247 184.129 109.757 184.129 109.757C184.129 109.757 184.739 110.694 181.777 110.083C181.777 110.083 178.148 102.075 177.394 92.8646C177.383 92.7136 177.371 92.5616 177.36 92.4096C176.658 83.0326 175.568 63.2881 175.568 63.2881L188.609 64.0893Z" fill="#2B478B"/>
<path d="M188.793 61.9824C188.793 61.9824 188.166 69.7339 187.616 76.6591L177.372 92.6641C177.361 92.5135 177.349 92.362 177.338 92.2104C176.645 82.8613 175.568 63.1756 175.568 63.1756L188.793 61.9824Z" fill="#233862"/>
<path d="M188.132 62.1596L164.198 107.199C164.198 107.199 161.97 108.186 161.681 107.328C161.681 107.328 163.804 86.6933 167.522 82.0645C169.623 79.4489 172.092 71.5993 172.207 68.8549C172.323 66.1096 172.959 60.677 172.959 60.677L188.132 62.1596Z" fill="#2B478B"/>
<path fill-rule="evenodd" clip-rule="evenodd" d="M168.635 113.552C168.635 113.552 165.082 113.602 164.053 112.61C163.932 112.493 163.54 111.32 163.536 111.307C163.505 111.212 163.324 110.782 162.592 110.54C162.11 110.381 161.708 110.386 161.244 110.207C160.901 110.075 160.24 109.757 159.923 109.574C158.822 108.942 159.074 108.607 159.074 108.607C159.074 108.607 159.316 108.39 159.636 108.074C159.722 107.988 159.814 107.895 159.908 107.795C160.385 107.296 160.915 106.667 161.052 106.217C161.166 105.834 161.384 105.585 161.592 105.426C161.852 105.224 162.097 105.165 162.097 105.165C162.097 105.165 162.485 106.7 163.253 106.508C164.738 106.137 165.015 106.181 165.067 106.204L165.079 106.213C165.079 106.213 166.294 108.531 166.632 109.358C167.234 110.831 168.005 111.388 168.49 111.873C168.613 111.996 168.702 112.13 168.764 112.269C169.014 112.83 168.828 113.447 168.635 113.552Z" fill="#F8C060"/>
<path d="M168.635 113.552C168.635 113.552 165.082 113.602 164.053 112.61C163.932 112.493 163.54 111.32 163.536 111.307C163.505 111.212 163.324 110.782 162.592 110.54C162.11 110.382 161.708 110.386 161.244 110.207C160.901 110.075 160.24 109.757 159.923 109.574C158.822 108.942 159.074 108.607 159.074 108.607C159.074 108.607 159.316 108.39 159.636 108.074C159.722 107.989 159.814 107.895 159.908 107.795C160.025 108.24 160.345 109.034 161.195 109.359C162.408 109.823 163.711 110.619 164.093 111.261C164.474 111.902 164.722 112.477 165.462 112.721C166.204 112.965 168.135 113.031 168.27 112.965C168.378 112.912 168.484 112.439 168.762 112.27C169.014 112.83 168.828 113.448 168.635 113.552Z" fill="#C1650A"/>
<path fill-rule="evenodd" clip-rule="evenodd" d="M181.359 113.465H182.779C183.255 113.392 183.607 113.257 184.095 113.194C184.837 113.099 185.178 113.396 185.246 113.465C185.255 113.473 185.259 113.479 185.259 113.479H191.296C191.448 113.266 191.302 112.774 191.159 112.412C191.063 112.166 190.853 111.979 190.594 111.906C189.954 111.724 188.692 111.562 187.537 110.537C186.887 109.962 184.397 108.421 184.397 108.421L184.383 108.418C184.329 108.419 184.068 108.498 182.935 109.434C182.35 109.917 181.352 108.751 181.352 108.751C181.352 108.751 181.165 108.903 181.024 109.186C180.912 109.409 180.83 109.716 180.894 110.094C180.985 110.627 180.694 111.617 180.462 112.287C180.322 112.693 180.202 112.981 180.202 112.981C180.202 112.981 180.136 113.315 181.359 113.465Z" fill="#F8C060"/>
<path d="M181.361 113.485H182.775C183.251 113.412 183.606 113.257 184.094 113.194C184.836 113.099 185.177 113.396 185.245 113.465C185.254 113.473 185.258 113.479 185.258 113.479H191.295C191.447 113.266 191.301 112.774 191.158 112.412C190.975 112.252 190.924 113.106 190.822 113.242C190.721 113.377 185.897 113.291 185.619 113.093C185.341 112.894 184.504 112.547 183.34 112.82C182.326 113.057 180.831 112.449 180.462 112.287C180.322 112.693 180.202 112.981 180.202 112.981C180.202 112.981 180.139 113.335 181.361 113.485Z" fill="#C1650A"/>
<path d="M175.568 31.2348C175.568 31.2348 181.435 34.079 184.826 33.0247C184.826 33.0247 183.991 31.9743 182.536 31.1863C182.619 30.7002 182.686 30.2557 182.738 29.8607C182.926 28.4292 182.933 27.6145 182.933 27.6145L179.337 24.7604L178.531 24.1199C178.554 24.797 178.512 25.4247 178.421 26.0028C178.413 26.0483 178.407 26.0939 178.399 26.1384C177.815 29.5746 175.568 31.2348 175.568 31.2348Z" fill="#FFB27D"/>
<path d="M172.923 60.8727C172.906 61.2327 173.646 61.6277 173.968 61.7719C175.394 62.4127 176.763 62.9383 178.166 63.311C179.145 63.5723 180.143 63.7591 181.189 63.8598C184.209 64.1705 187.778 63.4891 189.004 63.5055C189.133 63.5055 189.248 63.4562 189.346 63.3748C189.428 63.309 189.493 59.6143 189.428 54.9545C189.428 54.7755 189.428 54.578 189.413 54.398V54.3331C189.396 52.5182 189.331 50.6045 189.248 48.7083C189.07 44.5228 188.743 40.4835 188.187 38.2436C187.535 35.6117 186.033 33.8781 184.661 32.6033L183.687 31.6324C183.626 31.5715 183.539 31.5453 183.454 31.5608C182.364 31.7622 181.17 31.7457 180.025 31.1804C178.736 30.5435 177.331 29.8562 177.103 30.0198C174.426 32.0225 173.094 37.9416 173.119 44.6709C173.12 44.8829 173.122 45.0968 173.125 45.3107C173.136 46.0057 173.162 46.7085 173.202 47.4151C173.494 52.3798 173.194 56.6843 173.024 59.1865C172.973 59.9076 172.934 60.4787 172.923 60.8727Z" fill="#739AF0"/>
<path d="M186.292 50.4867L185.82 50.3427C185.584 50.2712 185.334 50.4104 185.264 50.6517L185.176 50.9578C185.106 51.2 185.241 51.4565 185.476 51.5289L185.949 51.6729C186.184 51.7444 186.434 51.6052 186.505 51.363L186.593 51.0569C186.662 50.8147 186.528 50.5582 186.292 50.4867Z" fill="#415DA5"/>
<path d="M186.935 51.3955L184.798 50.7433C184.416 50.627 184.012 50.852 183.899 51.2439L182.226 57.0309C182.113 57.4228 182.332 57.8385 182.713 57.9549L184.851 58.6071C185.232 58.7234 185.637 58.4984 185.75 58.1065L187.423 52.3195C187.536 51.9276 187.317 51.5118 186.935 51.3955Z" fill="#CADEFF"/>
<path d="M183.831 51.4785L182.226 57.0309C182.113 57.4228 182.332 57.8386 182.713 57.9549L184.851 58.6071C185.232 58.7234 185.637 58.4984 185.75 58.1065L187.322 52.6676C187.007 52.5579 186.28 52.3338 185.758 52.371C185.248 52.4073 184.288 51.7951 183.831 51.4785Z" fill="#86B1FC"/>
<path d="M182.63 55.6286L183.679 51.9998L187.205 53.0756L186.156 56.7044L182.63 55.6286Z" fill="#415DA5"/>
<path d="M172.923 60.7871C172.907 61.1564 173.626 61.5615 173.94 61.7095C175.328 62.3668 176.66 62.9059 178.025 63.2881C181.816 50.3599 177.277 37.8289 177.277 37.8289L173.118 44.8256C173.129 45.5385 173.153 46.2594 173.193 46.9842C173.477 52.0766 173.185 56.4919 173.02 59.0585C172.972 59.7972 172.934 60.383 172.923 60.7871Z" fill="#4A82D3"/>
<path d="M178.912 39.6826C177.492 38.8668 174.643 37.3859 172.288 37.1515C171.773 37.1 171.457 36.5759 171.665 36.1146C172.409 34.465 174.51 31.0134 177.07 29.4095C177.311 29.2589 177.491 29.3895 177.741 29.5258C178.686 30.0394 180.719 31.5604 180.844 33.3539C180.955 34.9482 180.391 37.7147 180.051 39.2032C179.938 39.6978 179.362 39.9408 178.912 39.6826Z" fill="#739AF0"/>
<path d="M178.292 25.5012C178.523 25.9107 180.197 28.5851 182.795 29.3423C182.986 27.8765 183.065 27.0315 183.065 27.0315L179.194 24.1199C178.713 24.6804 178.384 25.1954 178.264 25.393C178.264 25.393 178.273 25.4657 178.292 25.5012Z" fill="#E8945B"/>
<path d="M183.806 27.2749C183.806 27.2749 178.577 28.181 178.086 24.7738C177.595 21.3657 176.59 19.1879 179.908 18.4649C183.225 17.742 184.063 18.9401 184.491 20.0363C184.92 21.1325 185.153 26.9516 183.806 27.2749Z" fill="#FFB27D"/>
<path d="M185.735 17.9455C184.616 17.4483 179.16 14.9539 176.82 17.2291C176.776 16.8811 176.784 16.467 176.784 16.467C176.614 16.7636 176.539 17.1992 176.504 17.5089C176.296 17.2673 175.909 17.2272 175.909 17.2272C176.185 17.3532 176.301 17.5957 176.35 17.7972C174.033 21.1162 177.552 24.494 178.036 25.0201C178.536 25.564 178.82 25.4035 178.82 25.4035C178.82 25.4035 179.702 24.2552 179.273 23.5005C179.273 23.5005 178.556 22.8037 178.969 22.3643C179.381 21.925 179.62 22.5938 179.946 22.5733C180.271 22.5528 180.858 21.6321 180.901 20.7953C180.945 19.9586 184.078 21.2356 185.338 20.8382C186.6 20.4408 187.704 18.8196 185.735 17.9455Z" fill="#2C3A64"/>
<path d="M187.436 54.0072C187.308 53.5132 185.534 53.9082 185.157 53.5401C185.069 53.4555 185.984 53.3873 186.247 53.3171C186.512 53.2479 186.565 53.1335 186.52 53.0143C186.474 52.8951 184.796 52.5606 184.347 52.6164C184.071 52.651 183.275 52.9566 182.701 53.1883C182.702 53.1835 182.702 53.1816 182.701 53.1816C182.701 53.1816 175.753 48.2651 174.527 47.0674C173.633 46.2043 178.863 39.1953 178.778 39.1472C177.357 38.3206 174.503 36.8231 172.152 36.5828C172.054 36.5828 171.98 36.5588 171.894 36.5232C170.29 39.9143 168.637 44.3713 168.294 48.8293C168.294 48.8293 174.209 54.4849 181.68 55.4673C181.68 55.4673 184.563 56.1334 185.762 56.1065C187.401 56.0719 187.565 54.5013 187.436 54.0072Z" fill="#FFB27D"/>
<path d="M110.505 131.58C110.505 131.439 110.498 131.301 110.484 131.163L128.685 128.119L128.589 127.552L110.388 130.595C110.166 129.666 109.64 128.856 108.917 128.274L119.965 112.545L119.491 112.214L108.892 127.305L114.609 110.214L114.06 110.033L108.129 127.77C107.641 127.531 107.102 127.381 106.533 127.343V108.396H105.955V127.343C105.625 127.366 105.305 127.424 105 127.517L99.0991 111.13L98.5543 111.325L104.169 126.919L92.8799 113.965L92.4445 114.344L104.211 127.844C103.596 128.177 103.074 128.659 102.688 129.238L102.023 129.123L85.5692 120.81L85.3083 121.324L100.089 128.792L83.6106 125.969L83.5128 126.536L101.84 129.678L102.322 129.921C102.105 130.431 101.984 130.991 101.984 131.58C101.984 131.693 101.99 131.806 102 131.917L83.8101 134.607L83.8945 135.176L102.084 132.486C102.12 132.658 102.168 132.825 102.226 132.987L85.6172 140.098L85.8454 140.627L102.456 133.515C102.46 133.521 102.462 133.526 102.466 133.532L89.4289 146.638L89.8394 147.044L102.777 134.037C103.039 134.406 103.36 134.731 103.724 134.999L94.1575 149.998L94.6448 150.307L104.211 135.308C104.296 135.354 104.382 135.396 104.468 135.436C102.078 141.708 97.7026 153.196 97.5951 153.518L98.1438 153.699C98.2378 153.414 102.094 143.291 105.009 135.641C105.403 135.76 105.819 135.825 106.249 135.825C106.32 135.825 106.391 135.823 106.46 135.819L104.948 154.017L105.524 154.064L107.045 135.75C107.229 135.716 107.407 135.67 107.582 135.612C110.588 142.983 114.536 152.673 114.643 152.982L115.192 152.801C115.084 152.479 110.601 141.482 108.119 135.396C108.173 135.37 108.226 135.343 108.278 135.316L118.43 151.317L118.919 151.009L108.766 135.006C109.17 134.712 109.519 134.347 109.799 133.93L124.868 144.344L125.198 143.87L110.089 133.427C110.354 132.871 110.505 132.244 110.505 131.58Z" fill="#2C3A64"/>
<path fill-rule="evenodd" clip-rule="evenodd" d="M81.2491 131.58C81.2491 145.317 92.4617 156.492 106.245 156.492C110.697 156.492 115.071 155.311 118.89 153.074C122.597 150.904 125.699 147.799 127.86 144.097C130.072 140.312 131.241 135.983 131.241 131.58C131.241 117.843 120.028 106.667 106.245 106.667C92.4617 106.667 81.2491 117.843 81.2491 131.58ZM84.7175 131.58C84.7175 119.749 94.3743 110.124 106.245 110.124C118.115 110.124 127.772 119.749 127.772 131.58C127.772 135.373 126.767 139.1 124.864 142.357C123.001 145.549 120.329 148.223 117.135 150.093C113.847 152.018 110.081 153.036 106.245 153.036C94.3743 153.036 84.7175 143.411 84.7175 131.58Z" fill="#2C3A64"/>
<path fill-rule="evenodd" clip-rule="evenodd" d="M84.4182 131.729C84.4182 143.828 94.2937 153.672 106.435 153.672C118.576 153.672 128.453 143.828 128.451 131.729C128.451 119.63 118.576 109.786 106.435 109.786C94.2956 109.786 84.4182 119.629 84.4182 131.729ZM85.3064 131.729C85.3064 120.118 94.7848 110.671 106.435 110.671C118.085 110.671 127.563 120.118 127.563 131.729C127.563 143.34 118.085 152.787 106.435 152.787C94.7848 152.787 85.3064 143.34 85.3064 131.729Z" fill="#B84C42"/>
<path d="M94.9909 99.5433C94.6215 98.6147 93.759 98.04 92.8242 97.9791C82.1143 73.3898 82 73.1957 81.8382 72.9312L80.2903 75.9967C80.2084 75.8616 86.1374 89.0355 90.37 98.6927L89.7664 98.9344L104.513 130.475L106.902 129.501L94.9909 99.5433Z" fill="#B84C42"/>
<path d="M60.2995 19.7707C60.2764 19.4723 59.919 16.2694 54.9366 16.2864C54.9366 16.2864 57.3942 16.4828 57.8592 17.5253C57.8592 17.5253 56.1433 16.2808 54.8021 16.751C53.461 17.2213 52.7539 19.5875 52.775 20.3562C52.7961 21.1248 53.6454 23.5742 54.5139 23.7536C54.8425 23.8216 55.2191 23.7857 55.5573 23.7158C55.3421 24.0765 55.1326 24.4731 54.9328 24.9131C53.0997 28.9923 55.2979 32.8335 56.9619 32.3387C58.0302 32.0214 58.403 33.8193 58.403 33.8193L68.5618 25.0982C68.5618 25.0982 64.4153 17.4139 60.2995 19.7707Z" fill="#2C3A64"/>
<path d="M57.0111 72.9312C57.0111 72.9312 58.8826 76.798 61.248 82.1556C63.9016 88.1639 67.174 96.0485 69.1224 102.46C70.1523 105.851 70.8152 108.829 70.8171 110.9C70.8171 111.61 68.0598 114.495 67.2623 115.597C62.2357 122.546 55.3701 131.824 55.3701 131.824L53.4966 131.356C53.4966 131.356 56.1214 119.75 59.9452 113.957C60.6965 112.818 62.816 111.432 62.7141 111.306C62.7141 111.304 62.7122 111.304 62.7103 111.302C62.3798 110.892 61.5574 109.861 60.4333 108.392C57.3339 104.34 51.9517 96.9551 48.347 90.0878C48.1222 89.6603 47.905 89.2327 47.6956 88.809C45.7952 84.9746 44.5424 81.3826 44.6635 78.72L57.0111 72.9312Z" fill="#ED975D"/>
<path d="M51.9322 131.799L53.1979 132.613C53.6638 132.818 54.0543 132.895 54.5258 133.117C55.2407 133.454 55.3747 133.923 55.3954 134.024C55.3992 134.038 55.3992 134.045 55.3992 134.045L60.7769 137.5C61.0354 137.391 61.1881 136.853 61.2693 136.437C61.3258 136.156 61.2466 135.863 61.058 135.646C60.5921 135.112 59.5603 134.241 59.1208 132.634C58.8718 131.73 57.542 128.883 57.542 128.883L57.5326 128.874C57.4835 128.843 57.2062 128.766 55.6595 128.983C54.8597 129.094 54.6428 127.447 54.6428 127.447C54.6428 127.447 54.3881 127.48 54.1014 127.661C53.8732 127.803 53.6223 128.039 53.4639 128.425C53.2375 128.969 52.4095 129.716 51.8172 130.202C51.4588 130.497 51.1871 130.695 51.1871 130.695C51.1871 130.695 50.9306 130.961 51.9322 131.799Z" fill="#B84C42"/>
<path d="M54.0977 127.658C54.2655 128.067 54.6371 128.904 55.0257 129.232C55.5501 129.674 57.5401 128.881 57.5401 128.881L57.5307 128.872C57.4816 128.841 57.2043 128.764 55.6576 128.981C54.8578 129.092 54.6409 127.445 54.6409 127.445C54.6409 127.445 54.3844 127.478 54.0977 127.658Z" fill="#AA3E39"/>
<path d="M51.9323 131.799L53.1979 132.613C53.6639 132.818 54.0543 132.895 54.5259 133.117C55.2408 133.454 55.3747 133.923 55.3954 134.024C55.3992 134.038 55.3992 134.045 55.3992 134.045L60.777 137.5C61.0354 137.391 61.1882 136.852 61.2693 136.437C61.1976 136.184 60.66 136.942 60.4921 137.009C60.3243 137.076 56.0764 134.237 55.9425 133.894C55.8085 133.551 55.2634 132.753 54.0694 132.339C53.0301 131.977 52.0492 130.562 51.8134 130.2C51.455 130.495 51.1834 130.693 51.1834 130.693C51.1834 130.693 50.9306 130.961 51.9323 131.799Z" fill="#AA3E39"/>
<path fill-rule="evenodd" clip-rule="evenodd" d="M86.8714 89.5633L89.7618 92.5543L62.2366 133.388L60.58 132.32L61.2763 134.5L58.8067 135.29L52.7198 116.242L30.5183 130.462L57.8024 132.835L57.5786 135.42L23.0043 132.412L51.6887 113.011L44.1613 89.4561L46.6309 88.6658L53.9268 111.496L86.6552 89.3604L86.6629 89.3489L86.6667 89.3528L87.1258 89.0428L86.8714 89.5633ZM81.3067 97.9336L54.9828 114.793L60.3352 131.541L81.3067 97.9336Z" fill="#D8716B"/>
<path d="M95.9413 68.9527C95.4303 67.2393 93.6218 66.2634 91.9012 66.7723C90.5405 67.1745 89.6429 68.3867 89.5817 69.7246L75.1016 73.3441C74.2882 72.4673 73.0155 72.0728 71.7888 72.4368C70.0682 72.9457 69.0883 74.7469 69.5993 76.4604C70.1103 78.1738 71.9189 79.1497 73.6394 78.6408C74.4834 78.3911 75.1475 77.8307 75.5475 77.1217L92.0084 73.0086C92.5634 73.1535 93.1644 73.1535 93.7538 72.9781C95.4724 72.4673 96.4523 70.6662 95.9413 68.9527Z" fill="#415DA5"/>
<path d="M65.8381 127.494L70.6728 130.405C71.241 130.747 71.4368 131.51 71.1099 132.102C70.7811 132.695 70.0495 132.899 69.4812 132.558L64.6465 129.648C64.0783 129.305 63.8825 128.542 64.2094 127.95C64.5382 127.356 65.2699 127.152 65.8381 127.494Z" fill="#415DA5"/>
<path d="M66.7575 129.163L60.5631 135.87L59.9916 135.384L66.186 128.677L66.7575 129.163Z" fill="#415DA5"/>
<path d="M51.8138 103.241C51.5241 102.406 50.6222 101.966 49.799 102.26L48.3579 102.774C47.2276 103.177 45.9823 103.101 44.9096 102.558C39.6537 99.9011 33.2599 98.5562 25.8549 98.5562C25.7666 98.5562 25.6764 98.5562 25.5881 98.5562C22.2819 98.5698 16.3659 99.3912 13.8329 99.7746C13.1421 99.8797 12.6298 100.481 12.6298 101.192V102.12C12.6298 102.387 12.8715 102.587 13.1306 102.533L13.1383 102.531C17.8204 101.534 34.0064 98.8403 45.704 106.009C46.036 106.213 46.4409 106.254 46.8074 106.124L51.1921 104.561C51.7217 104.372 52.0019 103.78 51.8138 103.241Z" fill="#B84C42"/>
<path d="M35.7147 88.1879C35.7147 88.1879 35.2414 86.1212 36.5879 85.9817C37.9344 85.8422 42.8452 86.8579 44.1551 86.7165C45.4649 86.577 52.3037 85.4906 53.5034 86.6123C54.7031 87.734 54.195 88.7144 51.7937 88.9246C49.3924 89.1348 46.1913 89.5198 45.2813 90.2565C44.3734 90.9913 37.7895 93.1622 35.7147 88.1879Z" fill="#415DA5"/>
<path d="M53.2256 135.196C53.2256 131.595 56.1532 128.677 59.766 128.677C63.3788 128.677 66.3065 131.595 66.3065 135.196C66.3065 138.796 63.3788 141.714 59.766 141.714C56.1552 141.714 53.2256 138.796 53.2256 135.196Z" fill="#415DA5"/>
<path d="M29.3311 131.58C29.3311 131.439 29.3234 131.301 29.31 131.163L47.511 128.119L47.4151 127.552L29.2141 130.595C28.9935 129.666 28.466 128.856 27.7428 128.274L38.7904 112.545L38.3165 112.214L27.7178 127.305L33.4344 110.214L32.8858 110.033L26.9543 127.77C26.4671 127.531 25.928 127.381 25.3583 127.343V108.396H24.7809V127.343C24.4509 127.366 24.1306 127.424 23.8255 127.517L17.9248 111.13L17.38 111.325L22.9949 126.919L11.7056 113.965L11.2701 114.344L23.0371 127.844C22.4213 128.177 21.8995 128.659 21.514 129.238L20.8483 129.123L4.39488 120.81L4.13399 121.324L18.9146 128.792L2.43627 125.969L2.33844 126.536L20.6661 129.678L21.1476 129.921C20.9308 130.431 20.8099 130.991 20.8099 131.58C20.8099 131.693 20.8157 131.806 20.8253 131.917L2.63578 134.607L2.72019 135.176L20.9097 132.486C20.9481 132.658 20.9941 132.825 21.0517 132.987L4.44284 140.098L4.67112 140.627L21.2819 133.515C21.2857 133.521 21.2876 133.526 21.2914 133.532L8.25454 146.638L8.66506 147.044L21.6022 134.037C21.865 134.406 22.1854 134.731 22.5499 134.999L12.9832 149.998L13.4705 150.307L23.0371 135.308C23.1215 135.354 23.2078 135.396 23.2942 135.436C20.9039 141.708 16.5283 153.196 16.4208 153.518L16.9695 153.699C17.0635 153.414 20.9193 143.291 23.8351 135.641C24.2284 135.76 24.6447 135.825 25.0763 135.825C25.1473 135.825 25.2182 135.823 25.2873 135.819L23.7757 154.017L24.3512 154.064L25.8724 135.75C26.0565 135.716 26.235 135.67 26.4095 135.612C29.4155 142.983 33.3634 152.673 33.4709 152.982L34.0195 152.801C33.9121 152.479 29.429 141.482 26.9466 135.396C27.0004 135.37 27.0541 135.343 27.1059 135.316L37.2576 151.317L37.7468 151.009L27.5931 135.006C27.9979 134.712 28.3489 134.347 28.6271 133.93L43.6955 144.344L44.0255 143.87L28.9168 133.427C29.1777 132.871 29.3311 132.244 29.3311 131.58Z" fill="#2C3A64"/>
<path fill-rule="evenodd" clip-rule="evenodd" d="M0.072876 131.58C0.072876 145.317 11.2855 156.492 25.0686 156.492C29.5229 156.492 33.8948 155.311 37.7142 153.074C41.4203 150.904 44.5223 147.799 46.6842 144.097C48.896 140.312 50.0643 135.983 50.0643 131.58C50.0643 117.843 38.8517 106.667 25.0686 106.667C11.2855 106.667 0.072876 117.843 0.072876 131.58ZM3.54119 131.58C3.54119 119.749 13.198 110.124 25.0686 110.124C36.9391 110.124 46.596 119.749 46.5941 131.58C46.5941 135.373 45.5889 139.1 43.6859 142.357C41.8232 145.549 39.151 148.223 35.957 150.093C32.6709 152.018 28.9052 153.036 25.0686 153.036C13.198 153.036 3.54119 143.411 3.54119 131.58Z" fill="#2C3A64"/>
<path fill-rule="evenodd" clip-rule="evenodd" d="M3.24384 131.729C3.24384 143.828 13.1193 153.672 25.2604 153.672C37.3995 153.672 47.277 143.828 47.277 131.729C47.277 119.63 37.4014 109.786 25.2604 109.786C13.1213 109.786 3.24384 119.629 3.24384 131.729ZM4.13202 131.729C4.13202 120.118 13.6104 110.671 25.2604 110.671C36.9104 110.671 46.3888 120.118 46.3888 131.729C46.3888 143.34 36.9104 152.787 25.2604 152.787C13.6104 152.787 4.13202 143.34 4.13202 131.729Z" fill="#B84C42"/>
<path d="M88.8203 68.368C88.8203 68.368 87.2132 67.8491 85.9483 67.9002C84.6833 67.9514 82.8936 66.798 82.8936 66.798C82.8936 66.798 76.3305 62.5764 74.9117 61.1351C71.8666 58.0424 68.9657 42.1221 66.3071 43.3247C66.3071 43.3247 62.766 45.2887 63.1831 50.2584C63.6003 55.2299 68.2295 63.065 71.7513 65.0101C74.3331 66.4362 81.4383 68.6029 82.4764 68.9173C83.6452 69.3604 85.1216 70.457 85.5522 70.5991C86.0271 70.7544 87.2824 70.3131 88.0033 70.5991C90.6274 71.6445 90.6639 70.832 90.6639 70.832C90.5063 68.8604 88.8203 68.368 88.8203 68.368Z" fill="#ED975D"/>
<path d="M66.1678 54.3117C66.0072 55.4386 65.709 56.4111 65.3419 57.3339C65.0361 58.108 64.6805 58.844 64.3154 59.6125C63.2468 61.87 60.7273 62.9816 60.6413 67.3194C60.6126 68.8143 59.3625 72.1797 60.0697 74.6165C63.5527 86.6365 40.7626 75.7071 41.9975 72.5134C44.4501 66.1678 47.954 62.4992 47.8795 57.2729C47.8795 57.2595 47.8776 57.2462 47.8756 57.2329C47.8527 56.9793 47.8183 56.3005 47.7801 55.4043C47.6845 53.2116 47.5602 49.7127 47.5163 47.9414C47.5144 47.8994 47.5144 47.8594 47.5124 47.8193C47.4933 47.0605 47.4704 46.5113 47.4417 46.3683C49.1354 39.1761 53.0351 39.1456 54.3655 39.1685C54.8587 39.1761 55.3768 39.2086 55.8031 39.2448C56.6384 38.77 58.0855 36.5582 58.8368 32.9202L59.1407 33.0498L64.2504 35.2159C64.2504 35.2159 63.7783 36.8652 63.4437 38.4401C63.1818 39.6719 63.006 40.8579 63.2029 41.182C63.6043 41.3269 63.8452 41.4204 63.8452 41.4204C63.8452 41.4204 63.8452 41.4223 63.8471 41.4261C63.935 41.6282 66.984 48.5916 66.1678 54.3117Z" fill="#FFB27D"/>
<path d="M65.4043 57.3547C65.098 58.1396 64.7418 58.8859 64.3761 59.665C63.3057 61.9541 60.7819 63.0812 60.6958 67.4795C60.6192 67.4872 60.5407 67.4949 60.4602 67.5007C51.0986 68.2393 47.9085 57.2522 47.9085 57.2522C47.8856 56.9951 47.8511 56.3069 47.8128 55.3982L64.7054 55.4253C64.7073 55.4272 65.0558 56.1986 65.4043 57.3547Z" fill="#ED975D"/>
<path d="M64.0511 35.5374C64.0511 35.5374 63.5926 37.1862 63.2678 38.7644C60.3888 38.0564 59.4105 35.0108 59.0894 33.3696L64.0511 35.5374Z" fill="#ED975D"/>
<path fill-rule="evenodd" clip-rule="evenodd" d="M69.4639 47.1707C69.1829 46.4197 67.8158 43.542 67.8158 43.542C67.8158 43.542 66.7145 42.5975 63.6917 41.538C63.6917 41.538 63.6917 41.5399 63.6936 41.5438C63.7491 41.7162 65.1869 46.2683 64.7624 47.2665C64.3284 48.2838 55.3136 45.3927 54.7992 44.6762C54.3882 44.1014 54.2601 40.9805 54.2257 39.7639C54.218 39.4612 54.2142 39.2773 54.2142 39.2773C54.2142 39.2773 50.8759 38.9516 49.0385 39.7792C49.0385 39.7792 49.8358 41.356 50.1723 43.1167C50.2048 43.2834 50.2316 43.4501 50.2545 43.6186C50.3042 43.975 50.3272 44.3314 50.3215 44.68C50.3023 45.5652 49.5031 46.2855 48.4305 47.1324C48.0959 47.3967 47.7346 47.6726 47.3618 47.9715C47.3637 48.0117 47.3637 48.052 47.3656 48.0941C47.4287 50.602 47.6485 56.5527 47.725 57.4302C47.7269 57.4436 47.7269 57.457 47.7289 57.4704C49.3215 57.3938 53.023 57.2961 56.7934 57.7654C58.0094 57.9168 59.235 58.1275 60.3974 58.4188C61.7817 58.7617 63.0761 59.2177 64.1659 59.8193C64.2118 59.8442 64.2558 59.8691 64.2997 59.894C64.2997 59.894 65.7872 56.66 67.4067 52.7899C67.464 52.6501 67.5175 52.5102 67.5653 52.3703C68.0816 50.8281 67.9171 49.2686 67.6705 47.8815C68.5003 47.1783 69.4639 47.1707 69.4639 47.1707Z" fill="#655EB0"/>
<path d="M64.8719 36.9603C64.8719 36.9603 57.8064 35.6124 58.7199 31.2563C59.6333 26.9021 59.3377 23.7936 63.886 24.4713C68.4361 25.1491 68.9605 26.9911 69.012 28.5188C69.0635 30.0447 66.7331 37.1989 64.8719 36.9603Z" fill="#FFB27D"/>
<path fill-rule="evenodd" clip-rule="evenodd" d="M64.5022 59.8939C64.4577 59.8693 64.4113 59.8448 64.3668 59.8202C63.2639 59.2268 61.9521 58.777 60.5533 58.4388C59.3769 58.1534 58.1367 57.9437 56.9062 57.7944C53.0907 57.3314 49.3449 57.4277 47.7332 57.5033C47.7313 57.4901 47.7313 57.4769 47.7294 57.4637C47.652 56.5981 47.4295 50.7285 47.3656 48.2548C47.3637 48.2132 47.3637 48.1736 47.3618 48.1339C47.739 47.8391 48.1047 47.5669 48.4433 47.3062C53.0888 49.5096 61.8283 54.251 64.5022 59.8939Z" fill="#57509E"/>
<path d="M69.541 25.9973C68.7188 24.4481 67.8253 24.5646 67.2752 24.8664C63.8283 21.9399 60.6554 24.5531 60.6554 24.5531C59.5129 27.6076 56.8341 28.9371 56.8341 28.9371C56.8341 28.9371 57.9651 30.0011 61.1206 29.8598C62.0855 29.8159 63.037 29.3421 63.8958 28.706C62.2592 30.4653 60.3023 31.5714 60.3023 31.5714C64.2259 30.6755 66.7039 26.0508 66.9568 25.5598C67.31 26.0374 67.9893 27.0536 68.0761 27.9324C68.1939 29.1243 67.8677 31.4606 68.5625 31.5236C68.5625 31.5198 70.7742 28.3201 69.541 25.9973Z" fill="#2C3A64"/>
<path d="M41.6988 73.0815C41.6988 73.0815 36.4501 81.413 42.9367 85.9955C49.4232 90.578 71.2597 92.7691 70.1875 93.6577C66.9119 96.3771 63.9371 100.557 64.0933 125.592L65.7121 126.429C65.7121 126.429 81.2829 92.5097 80.2393 88.4669C79.5479 85.7895 56.8373 71.3061 41.6988 73.0815Z" fill="#FFB27D"/>
<path fill-rule="evenodd" clip-rule="evenodd" d="M54.483 90.4641C54.483 90.4641 41.1903 88.2836 39.8205 83.6367C38.7969 80.1662 38.4927 78.7511 44.5173 67.5364C44.5173 67.5364 47.035 72.2704 60.1728 71.1755C60.1728 71.1755 60.1059 71.7893 60.1059 72.6209C60.1231 74 60.3412 75.9607 61.4317 76.5252C61.4489 76.5423 61.4814 76.5423 61.4987 76.5593C63.2262 77.3398 65.9047 78.9159 66.3065 79.0656C66.3218 79.0637 58.2424 80.5943 54.483 90.4641Z" fill="#1FB79B"/>
<path fill-rule="evenodd" clip-rule="evenodd" d="M61.3448 76.5277C55.4828 74.755 48.715 74.3408 48.715 74.2898C53.6865 72.9803 57.3308 72.4817 60.0176 72.4817C60.0349 73.9109 60.2532 75.9427 61.3448 76.5277Z" fill="#1C513B"/>
<path d="M61.9378 127.105L63.3299 127.755C63.8315 127.902 64.2398 127.93 64.7492 128.093C65.521 128.338 65.7116 128.784 65.7465 128.882C65.7504 128.895 65.7524 128.901 65.7524 128.901L71.6648 131.66C71.9156 131.524 72.009 130.978 72.044 130.561C72.0673 130.277 71.9526 130.002 71.7329 129.811C71.1924 129.343 70.0355 128.608 69.3959 127.085C69.0362 126.229 67.3369 123.595 67.3369 123.595L67.3253 123.586C67.2708 123.561 66.9792 123.52 65.4199 123.911C64.615 124.113 64.197 122.525 64.197 122.525C64.197 122.525 63.9403 122.587 63.6682 122.797C63.4504 122.963 63.2229 123.221 63.1043 123.62C62.9371 124.179 62.1769 125.008 61.6267 125.551C61.2942 125.882 61.0395 126.107 61.0395 126.107C61.0395 126.107 60.8121 126.401 61.9378 127.105Z" fill="#B84C42"/>
<path d="M63.6662 122.798C63.8859 123.182 64.3661 123.956 64.8016 124.232C65.3907 124.605 67.335 123.595 67.335 123.595L67.3233 123.586C67.2689 123.561 66.9772 123.52 65.418 123.911C64.613 124.113 64.195 122.525 64.195 122.525C64.195 122.525 63.9384 122.587 63.6662 122.798Z" fill="#AA3E39"/>
<path d="M61.9378 127.105L63.3298 127.755C63.8314 127.902 64.2397 127.93 64.7491 128.093C65.521 128.338 65.7115 128.784 65.7465 128.882C65.7504 128.895 65.7524 128.901 65.7524 128.901L71.6648 131.659C71.9156 131.524 72.0089 130.978 72.0439 130.561C71.9409 130.323 71.4801 131.127 71.3168 131.212C71.1515 131.297 66.4698 129.01 66.2929 128.689C66.1159 128.368 65.4646 127.651 64.1911 127.383C63.0849 127.151 61.9125 125.876 61.6286 125.551C61.2961 125.882 61.0415 126.106 61.0415 126.106C61.0415 126.106 60.812 126.401 61.9378 127.105Z" fill="#AA3E39"/>
<path d="M79.3587 70.6895C79.3587 70.6895 77.7609 70.1653 76.5033 70.2169C75.2456 70.2686 73.4662 69.1033 73.4662 69.1033C73.4662 69.1033 61.2608 63.2636 59.9134 61.1186C58.1608 58.3231 55.2078 48.8804 52.5684 43.5017C51.3108 40.9378 50.122 39.2961 49.1644 39.7342C49.1644 39.7342 46.7753 40.49 46.9167 45.3463C46.9225 45.618 46.9397 45.9012 46.9645 46.1997C47.429 51.8232 53.308 65.1272 57.1937 67.3908C61.0774 69.6544 72.9598 71.2789 72.9598 71.2789C74.2078 71.2387 75.6394 72.7886 76.1114 72.9455C76.5835 73.1024 77.9711 72.7675 78.5464 72.9455C81.184 73.7606 81.1916 73.1808 81.1916 73.1808C81.0349 71.189 79.3587 70.6895 79.3587 70.6895Z" fill="#FFB27D"/>
<path fill-rule="evenodd" clip-rule="evenodd" d="M52.7745 43.6109C49.3971 42.8198 46.917 45.5079 46.917 45.5079C46.7704 40.5135 49.2465 39.7362 49.2465 39.7362C50.237 39.2856 51.4691 40.974 52.7745 43.6109Z" fill="#655EB0"/>
<path fill-rule="evenodd" clip-rule="evenodd" d="M210.536 153.872L198.671 156.17H155.125C155.125 156.17 156.959 147.32 165.153 147.32C173.346 147.32 176.235 140.029 185.819 140.094C192.089 140.137 196.208 136.244 201.86 134.021C201.89 134.044 204.038 133.197 204.068 133.219C205.756 134.476 205.772 136.425 207.899 137.691C209.073 138.39 210.245 139.145 211.34 140.018C212.356 140.83 217.045 141.454 217.045 142.559C217.045 143.459 216.151 143.224 216.151 144.301C216.151 144.349 215.303 145.5 215.303 145.547C215.303 147.388 214.396 145.682 214.396 147.32C214.396 147.392 212.989 148.944 212.989 149.017C212.989 154.677 211.484 153.453 210.536 153.872Z" fill="#244E3C"/>
<path fill-rule="evenodd" clip-rule="evenodd" d="M217.045 129.706C217.045 126.955 215.6 124.514 213.667 122.623C211.847 121.375 209.481 120.281 207.684 121.302C204.306 123.219 213.571 124.074 214.942 126.971C215.441 128.025 215.705 128.953 215.84 129.706C215.347 129.561 214.543 129.385 213.791 129.495C213 129.613 211.666 130.589 210.854 131.237C211.232 130.597 211.579 129.796 211.666 128.92C211.877 126.797 211.046 124.402 209.718 125.984C208.757 127.131 209.189 130.158 209.5 131.737C208.986 131.938 208.469 132.158 207.953 132.396C205.977 125.428 201.334 114.35 192.292 113.971C192.292 113.971 188.724 115.332 192.677 119.805C196.04 123.611 201.414 125.135 206.507 133.116C206.192 133.284 205.879 133.461 205.567 133.646C203.125 131.305 198.554 127.589 194.729 128.261C190.645 128.978 199.513 132.574 204.387 134.391C203.278 135.139 202.21 135.998 201.222 136.987C201.222 136.987 199.63 139.112 192.593 138.05C185.556 136.987 179.449 144.301 179.449 144.301L217.045 142.836C217.045 135.153 217.045 135.153 217.045 129.706Z" fill="#1FB79B"/>
<path fill-rule="evenodd" clip-rule="evenodd" d="M179.449 144.301C179.449 144.301 169.679 153.838 169.679 156.348C174.288 156.305 202.944 156.348 202.944 156.348C202.944 156.348 217.045 156.022 217.045 141.521C215.674 132.712 211.533 135.355 211.533 135.355L196.694 141.521L179.449 144.301Z" fill="#1FB79B"/>
<path fill-rule="evenodd" clip-rule="evenodd" d="M185.795 131.387C186.616 133.485 190.89 145.884 179.975 151.982C179.975 151.982 175.06 144.543 185.468 131.338C185.56 131.223 185.742 131.25 185.795 131.387Z" fill="#1FB79B"/>
<path fill-rule="evenodd" clip-rule="evenodd" d="M184.66 139.377C184.676 139.285 184.692 139.192 184.708 139.101C184.79 138.6 184.866 138.115 184.926 137.655C184.989 137.195 185.038 136.759 185.081 136.357C185.122 135.956 185.156 135.587 185.181 135.261C185.207 134.934 185.224 134.65 185.237 134.415C185.263 133.947 185.267 133.679 185.267 133.679C185.268 133.659 185.25 133.644 185.227 133.646C185.224 133.646 185.221 133.646 185.218 133.647C185.2 133.651 185.186 133.666 185.186 133.683C185.186 133.683 185.18 133.949 185.151 134.417C185.136 134.651 185.118 134.935 185.089 135.261C185.063 135.587 185.026 135.955 184.983 136.356C184.937 136.757 184.886 137.191 184.82 137.65C184.762 138.07 184.692 138.511 184.615 138.965C184.631 139.102 184.646 139.239 184.66 139.377Z" fill="#BACAC2"/>
<path fill-rule="evenodd" clip-rule="evenodd" d="M184.633 146.895C184.633 146.895 188.997 137.846 174.938 125.239C174.815 125.129 174.612 125.192 174.574 125.352C173.988 127.801 171.18 142.176 184.633 146.895Z" fill="#244E3C"/>
<path fill-rule="evenodd" clip-rule="evenodd" d="M178.519 136.066C176.734 131.043 175.245 126.608 175.245 126.608C175.228 126.559 175.225 126.519 175.237 126.515C175.238 126.514 175.239 126.514 175.24 126.514C175.255 126.516 175.282 126.561 175.3 126.614C175.3 126.614 175.578 127.449 176.081 128.913C176.584 130.377 177.685 133.548 178.579 136.054C179.361 138.248 181.528 141.488 182.525 144.169C182.563 144.34 182.603 144.514 182.642 144.687C181.576 141.815 179.347 138.397 178.519 136.066Z" fill="white"/>
<path fill-rule="evenodd" clip-rule="evenodd" d="M173.409 137.897C173.675 140.151 175.75 153.206 188.258 153.494C188.258 153.494 189.087 144.554 173.674 137.699C173.54 137.639 173.392 137.75 173.409 137.897Z" fill="#1FB79B"/>
<path fill-rule="evenodd" clip-rule="evenodd" d="M177.887 144.309C177.83 144.238 177.774 144.167 177.718 144.097C177.416 143.71 177.127 143.335 176.863 142.973C176.596 142.612 176.354 142.266 176.132 141.946C175.912 141.625 175.713 141.329 175.541 141.064C175.369 140.799 175.223 140.566 175.104 140.374C174.867 139.989 174.74 139.764 174.74 139.764C174.73 139.748 174.739 139.727 174.76 139.718C174.762 139.717 174.765 139.716 174.768 139.715C174.786 139.71 174.805 139.717 174.813 139.73C174.813 139.73 174.941 139.953 175.18 140.336C175.301 140.527 175.447 140.759 175.622 141.022C175.795 141.286 175.995 141.58 176.217 141.9C176.442 142.218 176.686 142.562 176.954 142.92C177.198 143.249 177.462 143.59 177.738 143.939C177.786 144.063 177.836 144.185 177.887 144.309Z" fill="#BACAC2"/>
<path fill-rule="evenodd" clip-rule="evenodd" d="M216.024 131.186L217.259 130.07C217.259 130.07 221.072 140.726 214.407 156.452C198.562 156.318 188.533 156.348 188.533 156.348L206.601 145.003L211.074 138.542L216.024 131.186Z" fill="#1FB79B"/>
<path fill-rule="evenodd" clip-rule="evenodd" d="M125.91 5.92976C125.91 5.92976 125.631 7.49628 123.724 7.10237C121.82 6.7115 118.4 4.30567 116.721 4.86623C115.039 5.42375 115.096 6.20852 115.488 6.20852C115.88 6.20852 116.946 6.54485 116.946 6.54485C116.946 6.54485 115.096 6.43274 113.192 8.11137C111.288 9.78999 111.118 12.7503 112.017 13.0866C112.913 13.423 113.025 11.8565 114.65 10.905C116.275 9.95361 117.675 10.0657 117.675 10.0657C117.675 10.0657 116.329 11.0717 116.833 11.5201C117.338 11.9686 118.179 10.9596 118.908 10.8505C119.636 10.7414 121.094 11.4656 122.661 10.8505C124.231 10.2354 124.677 9.28398 125.406 7.94472C126.135 6.59939 126.247 6.43274 125.91 5.92976Z" fill="#140C07"/>
<path d="M134.875 4.03001C134.875 4.03001 134.538 4.53299 133.809 4.92386C133.08 5.31473 131.401 5.48441 131.401 5.48441L131.288 4.25423C131.291 4.2512 134.091 3.52703 134.875 4.03001Z" fill="#BDB3A1"/>
<path fill-rule="evenodd" clip-rule="evenodd" d="M130.562 0.784743C128.88 -0.387871 127.538 -0.10911 126.417 1.28772C125.297 2.68456 125.184 3.133 125.351 3.74809C125.397 3.91474 125.443 4.06927 125.485 4.20563L125.822 5.36612C125.822 5.36612 126.657 6.54176 127.101 6.05393C127.371 5.75396 127.532 4.5662 127.617 3.69355C128.054 3.49963 128.537 3.31783 129.05 3.1936C130.9 2.74516 131.458 2.74516 131.458 2.74516C131.458 2.74516 132.242 1.96039 130.562 0.784743Z" fill="#140C07"/>
<path d="M130.784 12.3595C130.784 12.3595 132.746 12.8079 133.138 13.6442C133.529 14.4835 134.313 17.6135 135.212 19.9042C136.108 22.1949 135.661 21.7495 136.053 22.6433C136.445 23.5372 137.398 22.2525 137.453 22.81C137.507 23.3705 137.34 24.934 136.557 26.1642C135.773 27.3944 135.382 27.7307 134.316 25.9975C133.25 24.2644 131.404 19.0103 131.404 18.5619C131.404 18.1135 130.395 14.538 130.228 13.8108C130.058 13.0867 129.888 11.911 130.784 12.3595Z" fill="#F6BA99"/>
<path d="M122.044 39.0809C122.044 39.0809 122.157 44.838 121.877 45.6773C121.598 46.5166 120.645 46.9075 118.57 46.962C116.496 47.0165 115.042 46.8499 114.592 46.7953C114.143 46.7408 113.417 46.2924 112.913 46.459C112.409 46.6257 112.184 47.3529 112.242 48.2467C112.297 49.1406 112.804 49.4193 112.467 50.2587C112.13 51.098 112.412 52.3281 112.579 53.0554C112.746 53.7826 113.25 54.228 113.475 53.7826C113.7 53.3341 114.875 49.1436 114.875 49.1436C114.875 49.1436 121.149 49.9254 122.664 49.9254C124.176 49.9254 125.017 50.0375 125.859 47.9134C126.7 45.7894 127.429 40.7565 127.483 40.5353C127.535 40.3111 123.11 37.6265 122.044 39.0809Z" fill="#F2957E"/>
<path d="M126.918 6.48728C126.918 6.48728 126.694 8.4992 126.414 9.72939C126.135 10.9596 125.965 11.4626 125.965 11.4626C125.965 11.4626 122.995 10.8475 122.099 11.0717C121.203 11.2959 121.203 12.3564 121.258 14.2593C121.313 16.1591 121.987 23.3705 121.65 24.2098C121.313 25.0491 120.979 26.2217 119.354 28.067C117.729 29.9123 117.225 32.4848 117.617 34.2179C118.009 35.9511 119.746 37.4055 121.316 39.3599C122.886 41.3172 125.573 44.6139 125.573 45.4532C125.573 46.2925 125.406 50.4861 126.135 52.6101C126.864 54.7341 129.159 58.9277 129.664 60.7729C130.168 62.6182 130.617 64.6877 131.064 64.8544C131.513 65.021 136.721 61.7244 137.116 61.3335C137.507 60.9426 137.899 60.4396 137.34 60.27C136.779 60.1033 134.258 60.27 133.587 60.1033C132.916 59.9367 132.746 59.8791 132.521 59.7124C132.296 59.5458 130.617 52.1101 130.28 50.88C129.943 49.6498 129.943 44.62 129.272 42.8868C128.601 41.1536 127.984 39.5871 127.984 39.5871C127.984 39.5871 129.609 34.7785 129.609 31.7061C129.609 28.6306 129.834 24.8855 129.834 24.2704C129.834 23.6553 129.779 22.7615 130.283 22.2009C130.787 21.6404 132.075 20.4132 132.299 19.8527C132.524 19.2921 131.795 16.7227 131.458 15.6591C131.121 14.5956 130.787 12.3594 130.787 12.3594L128.771 11.6898L129.05 9.06279C129.05 9.06279 128.434 7.38416 127.984 6.88118C127.535 6.3782 126.918 6.48728 126.918 6.48728Z" fill="#F6BA99"/>
<path d="M126.527 5.48136C126.527 5.48136 125.91 4.08452 125.461 4.81173C125.011 5.53893 125.406 6.71154 125.853 6.88122C126.302 7.04787 126.581 6.71457 126.581 6.71457C126.581 6.71457 128.543 10.0143 129.718 10.1809C130.893 10.3476 131.792 7.49631 131.847 6.26613C131.902 5.03595 131.622 3.58154 130.893 3.36035C130.165 3.13916 127.532 3.527 127.082 3.86333C126.639 4.19663 126.527 5.48136 126.527 5.48136Z" fill="#F6BA99"/>
<path fill-rule="evenodd" clip-rule="evenodd" d="M126.023 4.75416L127.368 4.19664C127.368 4.19664 129.105 5.31471 130.113 5.14806C131.121 4.98141 133.529 4.1421 134.203 4.08453C134.875 4.02999 134.875 4.02999 134.875 4.02999C134.875 4.02999 132.184 2.63316 131.288 2.29682C130.392 1.96049 128.264 2.46347 127.198 3.07857C126.132 3.69366 125.461 4.81173 125.461 4.81173C125.461 4.81173 125.743 4.36329 126.023 4.75416Z" fill="#EC744A"/>
<path fill-rule="evenodd" clip-rule="evenodd" d="M129.609 31.7C129.609 30.3789 129.651 28.9336 129.697 27.664C128.613 27.8276 126.712 27.9185 124.398 27.1701C122.782 26.6489 121.653 26.2278 120.897 25.9187C120.569 26.5156 120.101 27.2155 119.357 28.0639C117.732 29.9092 117.228 32.4817 117.62 34.2149C117.833 35.1602 118.452 36.0208 119.22 36.9267C119.366 36.551 120.071 35.0118 121.935 34.327C124.064 33.5452 125.242 34.327 125.242 34.327L127.987 39.581C127.984 39.584 129.609 34.7754 129.609 31.7Z" fill="#1FB79B"/>
<path fill-rule="evenodd" clip-rule="evenodd" d="M129.658 28.8912C129.724 26.6823 129.834 24.7007 129.834 24.2674C129.834 23.6523 129.779 22.7585 130.283 22.1979C130.787 21.6404 132.075 20.4102 132.299 19.8497C132.524 19.2891 131.795 16.7196 131.458 15.6561C131.121 14.5926 130.787 12.3564 130.787 12.3564L129.238 11.8413L130.058 17.668C130.058 17.668 128.938 17.8347 127.146 17.3317C125.354 16.8287 124.568 16.55 124.568 16.55C124.568 16.55 125.689 13.1957 125.689 11.7989C125.689 11.6595 125.689 11.5323 125.689 11.408C125.348 11.3414 124.741 11.2323 124.109 11.1475C124.067 12.0201 123.927 13.3412 123.505 14.7077C123.053 16.1682 122.123 17.2135 121.486 17.8014C121.671 20.5041 121.871 23.6735 121.656 24.2129C121.404 24.8431 121.152 25.6612 120.353 26.8126C121.1 27.5913 122.749 28.9124 125.579 29.3003C127.574 29.5699 128.859 29.27 129.658 28.8912Z" fill="#EC744A"/>
<path d="M123.444 11.0717C123.444 11.0717 121.82 10.2324 120.754 10.6233C119.688 11.0142 118.567 13.7533 118.176 14.3684C117.784 14.9835 112.965 22.0283 112.965 22.5312C112.965 23.0342 114.644 23.5948 115.318 23.0918C115.989 22.5888 122.208 14.1472 122.208 14.1472" fill="#F6BA99"/>
<path d="M115.713 21.1343C115.713 21.1343 117.17 21.8039 118.57 22.4766C119.97 23.1462 122.044 23.8189 122.044 23.8189C122.044 23.8189 123.332 22.7008 123.727 22.5887C124.119 22.4766 125.239 23.2038 125.239 23.2038C125.239 23.2038 125.294 23.5946 125.014 23.5946C124.735 23.5946 124.735 23.5946 124.735 23.5946C124.735 23.5946 125.801 23.7613 125.801 23.931C125.801 24.0976 125.856 24.5461 125.689 24.7127C125.522 24.8794 125.297 25.1612 125.017 25.4399C124.738 25.7187 124.513 26.1671 123.447 26.1671C122.382 26.1671 121.039 25.3278 121.039 25.3278C121.039 25.3278 119.415 24.9915 117.341 24.5461C115.266 24.0976 113.25 22.8129 112.971 22.5341C112.691 22.2554 113.812 21.1918 113.812 21.1918" fill="#F6BA99"/>
<path d="M136.053 20.298C136.053 20.298 135.045 20.1314 134.932 20.4647C134.82 20.801 134.708 22.0312 134.932 22.3099C135.157 22.5887 135.661 22.3645 135.716 21.9736C135.773 21.5827 136.053 20.298 136.053 20.298Z" fill="#F8C6AB"/>
<path d="M136.053 20.2981C136.053 20.2981 135.603 20.186 135.661 21.0799C135.716 21.9737 135.94 23.5402 136.223 23.6524C136.502 23.7645 137.623 23.7645 137.96 23.316C138.297 22.8676 138.015 20.9678 137.905 20.6314C137.79 20.2981 136.445 20.2406 136.053 20.2981Z" fill="#F6BA99"/>
<path fill-rule="evenodd" clip-rule="evenodd" d="M114.258 49.6466C114.034 49.6466 113.979 49.5345 114.034 48.3619C114.088 47.1893 114.595 46.7954 114.595 46.7954C114.146 46.7408 113.42 46.2924 112.913 46.459C112.409 46.6257 112.184 47.3529 112.242 48.2467C112.297 49.1406 112.804 49.4194 112.467 50.2587C112.13 51.098 112.412 52.3282 112.579 53.0554C112.746 53.7826 113.25 54.228 113.475 53.7826C113.654 53.4281 114.431 50.7162 114.744 49.6133C114.547 49.6163 114.358 49.6466 114.258 49.6466Z" fill="#EC744A"/>
<path fill-rule="evenodd" clip-rule="evenodd" d="M137.34 60.27C136.782 60.1033 134.258 60.27 133.587 60.1033C133.059 59.973 132.843 59.9094 132.667 59.8064C132.5 59.87 132.345 60.0003 132.299 60.27C132.187 60.9396 132.187 61.5547 132.187 61.5547C132.187 61.5547 131.121 62.2243 130.45 62.4486C130.338 62.4849 130.231 62.5031 130.128 62.5152C130.453 63.7303 130.76 64.7362 131.067 64.8514C131.516 65.018 136.724 61.7214 137.119 61.3305C137.507 60.9396 137.902 60.4366 137.34 60.27Z" fill="#EC744A"/>
</svg>
