<svg width="228" height="161" viewBox="0 0 228 161" fill="none" xmlns="http://www.w3.org/2000/svg">
<path fill-rule="evenodd" clip-rule="evenodd" d="M14.1199 159.381C14.1199 159.381 -12.861 122.716 9.55709 83.0212C29.4478 47.8014 52.6385 50.2089 69.653 64.5014C76.8998 70.5887 97.793 65.2515 115.576 29.414C139.826 -19.4586 223.888 10.1828 208.561 85.3747C201.144 121.762 231.135 123.085 215.853 159.458L14.1199 159.381Z" fill="#BACAC2"/>
<path fill-rule="evenodd" clip-rule="evenodd" d="M89.2195 42.8669C77.8003 53.0467 62.6137 54.6201 55.2995 46.3811C47.9852 38.1421 51.3129 23.2109 62.7321 13.0311C74.1514 2.85131 89.3379 1.2779 96.6522 9.51686C103.966 17.7557 100.639 32.6871 89.2195 42.8669Z" fill="#BACAC2"/>
<path fill-rule="evenodd" clip-rule="evenodd" d="M31.4566 43.533C28.3184 39.9981 27.8333 35.2969 30.3732 33.0326C32.9131 30.7684 37.5161 31.7986 40.6544 35.3336C43.7926 38.8685 44.2777 43.5696 41.7378 45.8339C39.1979 48.0981 34.5948 47.068 31.4566 43.533Z" fill="#BACAC2"/>
<path fill-rule="evenodd" clip-rule="evenodd" d="M206.512 29.3074C205.472 24.6923 207.317 20.3427 210.633 19.5924C213.949 18.8422 217.48 21.9752 218.52 26.5904C219.56 31.2055 217.715 35.555 214.399 36.3053C211.083 37.0556 207.552 33.9225 206.512 29.3074Z" fill="#BACAC2"/>
<path fill-rule="evenodd" clip-rule="evenodd" d="M116.258 57.3019C116.249 57.4752 116.243 57.5663 116.243 57.5663C116.243 57.5663 116.215 57.4781 116.16 57.3093C115.708 55.9138 113.501 49.0265 111.493 41.3576C108.716 30.7471 106.318 18.6426 109.473 17.5235C115.449 15.4021 116.55 32.3547 116.567 44.8641C116.577 51.027 116.322 56.1096 116.258 57.3019Z" fill="#1FB79B"/>
<mask id="mask0_16_1654" style="mask-type:alpha" maskUnits="userSpaceOnUse" x="116" y="0" width="20" height="57">
<path fill-rule="evenodd" clip-rule="evenodd" d="M116.091 0.102783H135.738V56.9506H116.091V0.102783Z" fill="white"/>
</mask>
<g mask="url(#mask0_16_1654)">
<path fill-rule="evenodd" clip-rule="evenodd" d="M122.106 43.5255C119.947 48.3257 118.073 52.3641 116.998 54.7829C116.53 55.8377 116.214 56.5832 116.091 56.9507C116.196 56.3531 116.477 54.75 116.88 52.4687V52.4657C117.484 49.0473 118.36 44.1097 119.322 38.7476C121.657 25.7152 124.499 10.188 125.162 7.96784C126.332 4.05195 131.727 -4.2846 135.357 2.96878C137.716 7.68243 128.614 29.0574 122.106 43.5255Z" fill="#1FB79B"/>
</g>
<path fill-rule="evenodd" clip-rule="evenodd" d="M122.541 50.3741C120.309 52.7346 118.433 54.6485 117.385 55.7062C116.813 56.286 116.488 56.6086 116.488 56.6086C116.488 56.6086 117.059 55.388 118.032 53.4384C118.952 51.5963 120.23 49.1043 121.724 46.3776C126.619 37.4405 133.824 25.9857 138.292 26.6475C143.391 27.4021 130.631 41.8179 122.541 50.3741Z" fill="#1FB79B"/>
<path fill-rule="evenodd" clip-rule="evenodd" d="M116.258 57.3019C116.227 57.3034 116.194 57.3063 116.16 57.3093C115.708 55.9139 113.501 49.0265 111.493 41.3577C112.43 42.7635 114.123 44.649 116.567 44.8641C116.577 51.0271 116.322 56.1097 116.258 57.3019Z" fill="#1E543D"/>
<path fill-rule="evenodd" clip-rule="evenodd" d="M122.106 43.5254C119.947 48.3257 118.073 52.3641 116.998 54.7829C116.916 54.1076 116.88 53.3247 116.88 52.4686V52.4657C117.484 49.0473 118.36 44.1097 119.322 38.7476C119.698 40.6196 120.48 42.6932 122.106 43.5254Z" fill="#1E543D"/>
<path fill-rule="evenodd" clip-rule="evenodd" d="M122.541 50.3739C120.309 52.7344 118.433 54.6484 117.385 55.706C117.487 55.098 117.722 54.3092 118.032 53.4382C118.952 51.5961 120.23 49.1041 121.724 46.3774C121.758 47.5203 121.921 49.2236 122.541 50.3739Z" fill="#1E543D"/>
<path fill-rule="evenodd" clip-rule="evenodd" d="M116.09 56.9536C116.06 57.1209 116.045 57.2091 116.045 57.2091C116.023 57.1971 116.037 57.1105 116.09 56.9536Z" fill="#F1A245"/>
<path fill-rule="evenodd" clip-rule="evenodd" d="M119.086 74.1856C115.343 84.8141 110.681 96.4032 110.681 96.4032L100.149 93.2402C100.149 93.2402 101.382 85.3684 103.192 76.6089C105.303 66.3958 106.508 56.0907 110.839 53.4098C112.031 52.672 113.318 52.3296 114.577 52.2369C115.212 52.1891 115.844 52.2101 116.461 52.2922C116.609 52.3116 116.753 52.3341 116.899 52.3594C117.265 52.4252 117.624 52.5104 117.974 52.6149C118.111 52.6537 118.247 52.6972 118.381 52.745C118.848 52.9033 119.298 53.0945 119.728 53.3126C121.551 54.242 123.02 55.6399 123.595 57.1508C125.325 61.6928 121.916 66.1552 119.086 74.1856Z" fill="#FF7042"/>
<path fill-rule="evenodd" clip-rule="evenodd" d="M113.937 84.5676C110.819 94.0457 109.893 104.447 111.173 115.544C111.387 117.395 112.416 119.002 113.903 119.988C114.568 120.43 115.325 120.746 116.143 120.906C117.975 120.896 121.589 117.56 123.656 113.302C124.223 112.13 124.675 110.891 124.94 109.629C127.012 99.7795 130.849 87.919 135.608 81.8572C140.475 75.658 147.032 68.2482 156.046 63.1521C156.046 63.1521 156.047 63.1507 156.049 63.1501C156.919 62.651 177.373 47.7256 177.373 47.7256C179.408 45.5697 176.998 43.1543 176.998 43.1543C176.998 43.1543 175.055 44.8612 169.129 48.281C163.203 51.6994 152.797 47.6927 152.793 47.6922C149.878 46.3713 146.417 46.5055 143.552 48.2481C139.132 50.937 133.246 55.1779 127.662 61.2835C121.381 68.1532 116.762 75.9872 113.937 84.5676Z" fill="#FFC22A"/>
<path fill-rule="evenodd" clip-rule="evenodd" d="M124.94 109.629C127.012 99.7794 130.849 87.919 135.608 81.8571C140.475 75.6579 147.032 68.2482 156.046 63.152C156.046 63.152 156.047 63.1506 156.049 63.1502C156.206 63.0358 162.305 58.5293 155.546 54.4486C148.931 50.4553 121.931 80.2055 123.656 113.301C124.223 112.13 124.675 110.891 124.94 109.629Z" fill="#FF9F23"/>
<path fill-rule="evenodd" clip-rule="evenodd" d="M101.735 75.2615C100.977 76.4549 100.047 77.6104 98.9491 78.6937C94.789 82.7998 88.259 85.8455 79.8534 85.7659C79.8534 85.7659 76.3245 82.3949 74.6134 78.1054L74.615 78.1039C73.4286 75.1286 72.5624 70.7474 74.6134 67.4955C75.9357 65.4004 77.636 64.4086 79.3593 63.886C82.2871 62.9936 85.2807 63.4535 86.5891 62.147C87.8793 60.8587 89.7153 59.7462 91.7314 59.106C92.0608 59.0005 92.3948 58.9073 92.7333 58.8309H92.7348C92.8751 58.7972 93.0138 58.7668 93.1558 58.7392C93.1587 58.7377 93.1618 58.7377 93.1649 58.7377C96.2728 58.1294 99.5926 58.7254 101.901 61.5021C102.437 62.1455 102.923 62.9233 103.336 63.8584C104.816 67.1898 104.18 71.4152 101.735 75.2615Z" fill="#6139BC"/>
<path fill-rule="evenodd" clip-rule="evenodd" d="M77.2868 67.0133C77.2868 67.0133 74.5128 69.1957 75.3629 71.6097C76.213 74.0239 78.4051 72.9088 79.0909 71.2366C79.7769 69.5642 79.1103 66.2026 77.2868 67.0133Z" fill="#744DA5"/>
<path fill-rule="evenodd" clip-rule="evenodd" d="M101.901 61.5015C102.437 62.145 102.923 62.924 103.337 63.8589C104.816 67.1901 106.846 76.0263 104.402 79.8734L101.124 82.8788C96.9637 86.9853 88.259 85.8451 79.8536 85.7653C79.8536 85.7653 76.3252 82.3945 74.6136 78.1052L74.6149 78.1041C74.6149 78.1041 85.0129 82.2263 94.8064 73.6201C99.2542 69.7105 101.153 65.2295 101.901 61.5015Z" fill="#4A2C76"/>
<path fill-rule="evenodd" clip-rule="evenodd" d="M86.042 57.107C84.3256 56.0826 82.589 57.5215 80.5732 58.3114C78.5563 59.1024 74.6765 59.0863 74.6765 59.0863C74.6765 59.0863 76.2721 56.7845 78.8878 54.4976C81.5034 52.2107 86.042 57.107 86.042 57.107Z" fill="#F1A245"/>
<path fill-rule="evenodd" clip-rule="evenodd" d="M86.042 57.107C84.4292 55.7801 81.4456 55.0193 79.99 55.6162C78.5346 56.2132 74.6765 59.0863 74.6765 59.0863C74.6765 59.0863 76.2721 56.7845 78.8878 54.4976C81.5034 52.2107 86.042 57.107 86.042 57.107Z" fill="#FF9F23"/>
<path fill-rule="evenodd" clip-rule="evenodd" d="M86.5891 62.147C87.8792 60.8587 89.7153 59.7462 91.7313 59.106C88.3031 60.3942 86.4123 64.7478 85.1113 64.2436C83.716 63.701 79.5192 63.8783 79.3592 63.886C82.287 62.9936 85.2806 63.4535 86.5891 62.147Z" fill="#4A2C76"/>
<path fill-rule="evenodd" clip-rule="evenodd" d="M93.1556 58.7392C93.0473 58.7698 92.9085 58.8003 92.7347 58.831C92.875 58.7973 93.0137 58.7669 93.1556 58.7392Z" fill="#EE8914"/>
<path fill-rule="evenodd" clip-rule="evenodd" d="M85.3538 64.1561C84.2543 61.7219 84.8487 58.7024 85.5407 56.598C86.0918 54.9232 87.1481 52.6624 87.6669 51.5877C87.7765 51.3606 88.1056 51.3835 88.1845 51.623L88.3936 52.2575C88.6031 52.893 88.5264 53.5882 88.1807 54.1608C87.1182 55.9211 84.984 60.0358 85.9452 63.4227C86.0535 63.8039 85.5488 64.592 85.3538 64.1561Z" fill="#FF9F23"/>
<path fill-rule="evenodd" clip-rule="evenodd" d="M111.05 75.1281L110.707 74.9908C112.222 72.7329 114.571 71.1848 116.421 70.4684C118.04 69.8414 119.336 69.6356 119.799 69.5753C119.912 69.5607 120.024 69.604 120.098 69.6904L120.385 70.0253C120.527 70.1908 120.428 70.4556 120.212 70.4864C118.557 70.7235 113.336 71.7184 111.05 75.1281Z" fill="#74DAEE"/>
<path fill-rule="evenodd" clip-rule="evenodd" d="M104.608 75.7733C106.345 71.4267 108.789 72.407 111.803 73.6164C114.818 74.8257 117.262 75.8061 115.525 80.1527C114.281 83.2677 110.828 84.8127 107.813 83.6033C104.799 82.394 103.364 78.8883 104.608 75.7733Z" fill="#41B8E1"/>
<path fill-rule="evenodd" clip-rule="evenodd" d="M106.437 74.8747C106.546 74.0957 107.797 73.2756 108.575 73.3845C109.352 73.4935 109.714 74.3639 109.605 75.1429C109.496 75.9219 108.426 76.5916 107.648 76.4826C106.871 76.3736 106.329 75.6537 106.437 74.8747Z" fill="#74DAEE"/>
<path fill-rule="evenodd" clip-rule="evenodd" d="M143.394 76.8677L152.705 143.33C153.859 151.574 147.472 158.935 139.165 158.935H125.137C118.054 158.935 112.539 152.772 113.309 145.715L121.189 83.8904L143.394 76.8677Z" fill="#FF7042"/>
<path fill-rule="evenodd" clip-rule="evenodd" d="M94.4962 76.8677C94.4962 76.8677 117.064 84.5785 143.394 76.8677L135.636 159.146H86.5034L94.4962 76.8677Z" fill="#FF7042"/>
<path fill-rule="evenodd" clip-rule="evenodd" d="M94.4963 76.8677L103.807 143.501C104.962 151.765 98.5746 159.146 90.2679 159.146H76.2398C69.1562 159.146 63.6413 152.966 64.4118 145.892L71.0812 76.8677C71.0812 76.8677 74.3668 77.5104 82.3597 77.5104C90.2757 77.5104 94.4963 76.8677 94.4963 76.8677Z" fill="#FF4A1E"/>
<path fill-rule="evenodd" clip-rule="evenodd" d="M136.255 84.2773C136.255 83.3099 135.473 82.5256 134.507 82.5256C133.542 82.5256 132.759 83.3099 132.759 84.2773C132.759 84.9241 133.11 85.4878 133.63 85.7911C134.372 91.6873 133.202 96.5063 130.285 99.459C127.632 102.143 123.609 103.138 118.651 102.336C114.291 101.631 111.421 96.796 109.782 92.8644C108.603 90.0367 107.874 87.2523 107.5 85.5992C107.869 85.2781 108.104 84.8056 108.104 84.2773C108.104 83.3099 107.321 82.5256 106.356 82.5256C105.39 82.5256 104.608 83.3099 104.608 84.2773C104.608 84.9296 104.964 85.4974 105.492 85.7989C106.432 90.1209 109.912 102.951 118.332 104.313C119.558 104.511 120.735 104.609 121.86 104.609C125.899 104.609 129.26 103.341 131.705 100.868C135.05 97.4827 136.419 92.1095 135.623 85.6253C136.009 85.304 136.255 84.8196 136.255 84.2773Z" fill="#6139BC"/>
<path fill-rule="evenodd" clip-rule="evenodd" d="M165.966 101.656C167.149 102.049 168.428 102.32 169.782 102.448C174.912 102.934 181.074 101.37 186.78 96.6204C186.78 96.6204 187.319 92.343 186.104 88.4525L186.102 88.4523C185.259 85.7541 183.414 82.2728 180.202 81.1937C178.132 80.4987 176.417 80.77 174.947 81.3749C172.448 82.3998 170.656 84.3867 169.034 84.2235C167.435 84.0628 165.56 84.3273 163.824 85.0153C163.54 85.1272 163.26 85.25 162.986 85.3868L162.984 85.3876C162.87 85.4429 162.758 85.4995 162.646 85.5599C162.643 85.5607 162.641 85.5623 162.638 85.564C160.174 86.8839 158.234 89.1461 158.199 92.3353C158.19 93.0745 158.29 93.8783 158.528 94.749C159.369 97.8545 162.154 100.39 165.966 101.656Z" fill="#FF7042"/>
<path fill-rule="evenodd" clip-rule="evenodd" d="M178.105 82.3571C178.105 82.3571 181.217 82.3005 181.978 84.4271C182.739 86.5536 180.619 87.0151 179.22 86.2541C177.82 85.493 176.406 82.8208 178.105 82.3571Z" fill="#FFBB98"/>
<path fill-rule="evenodd" clip-rule="evenodd" d="M158.199 92.3346C158.19 93.0741 158.291 93.8785 158.528 94.7494C159.369 97.8547 162.895 105.034 166.707 106.301C166.707 106.301 174.268 109.782 178.591 108.163C183.418 106.354 186.389 102.533 186.78 96.6201C186.78 96.6201 187.319 92.343 186.104 88.4525L186.102 88.4524C186.102 88.4524 181.281 97.0807 169.794 96.6629C164.576 96.4725 160.785 94.4672 158.199 92.3346Z" fill="#FF4A1E"/>
<path fill-rule="evenodd" clip-rule="evenodd" d="M166.604 80.4697C167.209 78.8102 169.198 78.8247 171.016 78.2391C172.836 77.6537 175.481 75.4755 175.481 75.4755C175.481 75.4755 173.109 74.792 170.048 74.6884C166.986 74.5847 166.604 80.4697 166.604 80.4697Z" fill="#F1A245"/>
<path fill-rule="evenodd" clip-rule="evenodd" d="M166.604 80.4697C166.97 78.6612 168.588 76.4741 169.916 76.0694C171.244 75.6648 175.481 75.4755 175.481 75.4755C175.481 75.4755 173.109 74.792 170.048 74.6884C166.986 74.5847 166.604 80.4697 166.604 80.4697Z" fill="#FF9F23"/>
<path fill-rule="evenodd" clip-rule="evenodd" d="M169.034 84.2233C167.435 84.0627 165.559 84.3271 163.824 85.0151C166.886 83.9816 170.602 85.904 171.211 84.8323C171.864 83.6819 174.834 81.4589 174.947 81.3748C172.448 82.3996 170.656 84.3865 169.034 84.2233Z" fill="#FF4A1E"/>
<path fill-rule="evenodd" clip-rule="evenodd" d="M162.646 85.5599C162.737 85.5203 162.849 85.4637 162.984 85.3875C162.87 85.4428 162.758 85.4995 162.646 85.5599Z" fill="#EE8914"/>
<path fill-rule="evenodd" clip-rule="evenodd" d="M170.996 84.9081C170.395 82.6285 168.309 80.8946 166.664 79.8414C165.356 79.0035 163.376 78.0466 162.423 77.6011C162.222 77.5069 162.009 77.7066 162.088 77.9145L162.298 78.4653C162.508 79.0171 162.948 79.4499 163.503 79.6487C165.209 80.2595 168.958 81.8824 170.184 84.7366C170.322 85.0578 171.106 85.3153 170.996 84.9081Z" fill="#FF9F23"/>
<path fill-rule="evenodd" clip-rule="evenodd" d="M157.98 152.877C157.98 152.877 155.693 154.594 152.189 153.687C152.189 153.687 149.363 153.041 148.743 154.454C148.743 154.454 153.077 156.66 154.173 157.263C155 157.718 155.862 158.435 156.472 158.99C156.954 159.429 157.706 159.37 158.117 158.863C158.308 158.628 158.526 158.348 158.765 158.024C159.433 157.116 160.99 154.186 160.99 154.186L157.98 152.877Z" fill="#4A2C6A"/>
<path fill-rule="evenodd" clip-rule="evenodd" d="M156.638 152.005C156.638 152.005 158.03 155.222 161.245 154.631C161.245 154.631 167.805 149.202 172.304 143.563C173.765 141.732 175.01 139.878 175.741 138.181C178.725 131.259 186.778 120.934 191.898 115.701L179.088 111.057C179.088 111.057 174.984 119.328 169.525 129.488C165.59 136.809 160.952 145.11 156.638 152.005Z" fill="#6139BC"/>
<path fill-rule="evenodd" clip-rule="evenodd" d="M169.525 129.488L172.304 143.563C173.765 141.731 175.01 139.878 175.741 138.181C178.725 131.259 186.778 120.934 191.898 115.701L179.088 111.057C179.088 111.057 174.984 119.328 169.525 129.488Z" fill="#4A2C6A"/>
<path fill-rule="evenodd" clip-rule="evenodd" d="M179.996 154.744C179.996 154.744 180.136 157.312 177.03 157.654C177.03 157.654 175.255 157.664 175.25 159.298L184.277 159.327C184.277 159.327 184.539 158.667 184.603 157.255C184.652 156.171 183.554 153.337 183.554 153.337L179.996 154.744Z" fill="#4A2C6A"/>
<path fill-rule="evenodd" clip-rule="evenodd" d="M183.29 111.057C183.29 111.057 177.582 117.341 173.96 128.662C171.989 134.822 177.573 150.309 178.661 155.689C178.661 155.689 182.407 156.008 184.968 155.016C184.968 155.016 185.163 143.902 183.665 135.336C182.827 130.542 191.179 125.084 194.829 116.422C197.312 110.529 194.291 110.629 190.579 110.487L183.29 111.057Z" fill="#6139BC"/>
<path fill-rule="evenodd" clip-rule="evenodd" d="M189.878 83.021C193.053 84.8177 199.553 83.1607 199.553 83.1607C199.553 83.1607 196.913 80.1365 198.113 75.2659L195.62 76.5346L192.942 77.8975C192.942 77.8975 192.769 78.7577 192.648 80.3026C192.618 80.7006 192.59 81.1449 192.571 81.6306C190.941 82.1259 189.878 83.021 189.878 83.021Z" fill="#FFB792"/>
<path fill-rule="evenodd" clip-rule="evenodd" d="M178.234 110.732C178.234 111.291 178.877 111.559 179.014 111.586C180.295 111.821 183.87 113.215 187.092 113.534C189.804 113.819 192.323 113.549 195.089 112.992C195.456 112.918 196.316 112.686 196.377 112.334C196.453 111.95 207.048 90.6899 198.812 81.5574C198.618 81.3433 196.992 81.7291 195.506 82.0827C194.132 82.4091 192.873 82.2271 191.748 81.775L190.354 82.5102C188.641 83.4664 185.401 86.8636 185.022 89.529C184.83 90.8844 184.056 91.8882 183.832 93.0808C183.749 93.5219 183.664 93.9527 183.578 94.3726C183.409 95.1962 183.235 95.9798 183.056 96.7253C182.572 98.7412 182.06 100.477 181.558 101.976C181.024 103.568 180.5 104.892 180.032 106C179.425 107.436 178.911 108.509 178.591 109.331C178.364 109.91 178.234 110.364 178.234 110.732Z" fill="#EAEAEA"/>
<path fill-rule="evenodd" clip-rule="evenodd" d="M178.591 109.331C193.547 102.27 198.727 88.7112 198.727 88.7112C198.727 88.7112 186.575 93.2031 183.578 94.3726C183.409 95.1963 183.235 95.9798 183.056 96.7252C182.572 98.7413 182.061 100.477 181.558 101.976C181.024 103.568 180.5 104.892 180.032 106C179.424 107.436 178.911 108.509 178.591 109.331Z" fill="#C8D1CE"/>
<path fill-rule="evenodd" clip-rule="evenodd" d="M168.447 105.6C168.447 105.6 166.368 104.746 165.89 104.814C165.413 104.883 164.091 104.551 164.166 104.985C164.218 105.285 165.925 105.6 165.925 105.6C165.925 105.6 164.019 105.171 164.166 105.617C164.268 105.924 164.672 107.147 165.302 107.547C166.056 108.025 167.421 107.795 169.021 107.563C171.958 107.137 168.447 105.6 168.447 105.6Z" fill="#FFB792"/>
<path fill-rule="evenodd" clip-rule="evenodd" d="M168.776 107.071C168.298 105.822 168.08 105.256 168.08 105.256C168.08 105.256 177.846 97.279 178.841 96.5948C179.519 96.1285 186.27 91.072 189.561 87.1314C191.194 85.1767 193.768 84.2832 196.257 84.8064L198.307 85.2372C200.783 85.7573 201.587 88.8971 199.667 90.5468C194.259 95.1928 185.137 100.581 183.436 101.702C179.214 104.485 169.875 108.383 169.875 108.383C169.875 108.383 169.152 108.052 168.776 107.071Z" fill="#EAEAEA"/>
<path fill-rule="evenodd" clip-rule="evenodd" d="M192.648 80.3024C195.771 80.4781 197.801 77.8947 197.801 77.8947C197.801 77.8947 196.39 77.1112 195.62 76.5344L192.942 77.8973C192.942 77.8973 192.769 78.7575 192.648 80.3024Z" fill="#F2AC8C"/>
<path fill-rule="evenodd" clip-rule="evenodd" d="M191.318 77.0901C191.318 77.0901 196.049 80.4924 198.118 77.5073C200.187 74.5223 202.191 72.9511 199.258 70.6527C196.325 68.3543 194.942 69.0804 194.01 69.9085C193.077 70.7365 190.141 76.1282 191.318 77.0901Z" fill="#FFB792"/>
<path fill-rule="evenodd" clip-rule="evenodd" d="M193.51 67.2126C193.679 66.0652 194.061 65.2578 194.061 65.2578C194.061 65.2578 194.358 66.4902 196.606 66.3202C198.853 66.1501 202.416 66.5417 203.603 69.1082C203.679 69.2714 203.746 69.4397 203.806 69.6117C204.021 69.0427 204.073 68.19 204.073 68.19C204.5 69.2949 204.073 70.677 204.073 70.677H204.072C204.079 70.7172 204.084 70.7577 204.09 70.798C204.586 71.2182 205.003 72.5247 205.003 72.5247C204.853 72.1604 204.488 71.9225 204.162 71.7761C204.172 73.7733 203.364 75.7256 201.946 76.3067C199.871 77.1567 199.888 76.5084 197.801 77.8949C197.801 77.8949 197.242 77.1992 197.624 76.7317C198.005 76.2642 199.447 75.5845 198.641 74.9044C197.836 74.2245 197.539 74.9894 197.242 74.522C196.945 74.0545 198.429 72.6946 196.521 71.4197C194.613 70.1448 193.34 68.3601 193.51 67.2126Z" fill="#655EB0"/>
<path fill-rule="evenodd" clip-rule="evenodd" d="M53.9484 11.0606C53.9402 10.8356 53.7665 8.41159 50.0819 8.28491C50.0819 8.28491 51.8937 8.5014 52.2068 9.29957C52.2068 9.29957 50.9731 8.31338 49.9684 8.63054C48.9637 8.9478 48.3736 10.7117 48.3677 11.2918C48.3617 11.872 48.9199 13.7423 49.5576 13.9013C49.7991 13.9615 50.0773 13.9453 50.3298 13.9022C50.1602 14.1676 49.994 14.4604 49.835 14.7875C48.3648 17.8119 49.8811 20.7676 51.1256 20.441C51.924 20.2316 52.1498 21.5965 52.1498 21.5965L59.9053 15.3048C59.9053 15.3048 57.0568 9.3983 53.9484 11.0606Z" fill="#4E306D"/>
<path fill-rule="evenodd" clip-rule="evenodd" d="M56.6486 100.158L55.0013 100.773C55.0013 100.773 47.8461 90.8286 46.9651 82.0793C46.8078 80.5173 46.8603 79.0038 47.2006 77.6062C47.2006 77.6062 47.1306 77.206 47.0083 76.4984C46.9517 76.1682 46.8818 75.7706 46.8024 75.3151C46.5697 73.9795 46.2496 72.152 45.8839 70.0712C45.0419 65.2827 43.9512 59.1614 43.1039 54.6614L43.5477 54.5185L48.3505 52.9659L49.343 49.8069L52.9192 48.8635C52.9192 48.8635 53.7181 50.4296 54.4322 57.8272C54.564 58.7975 54.6836 59.8676 54.7738 61.0279C55.0522 64.5698 55.0724 68.9633 54.4335 73.9862C54.2695 75.272 54.0624 76.5995 53.8054 77.9634C53.6172 78.9634 53.589 80.3259 53.6683 81.8906C54.0287 89.0429 56.6486 100.158 56.6486 100.158Z" fill="#6139BC"/>
<path fill-rule="evenodd" clip-rule="evenodd" d="M54.7738 61.028L47.0083 76.4984C46.9517 76.1683 46.8818 75.7707 46.8024 75.3152C46.5698 73.9796 46.2496 72.1521 45.8839 70.0712C45.0419 65.2828 43.9512 59.1614 43.1039 54.6614L43.5477 54.5186L48.3505 52.966L49.343 49.8069L52.9192 48.8635C52.9192 48.8635 53.7181 50.4296 54.4322 57.8272C54.564 58.7975 54.6837 59.8676 54.7738 61.028Z" fill="#4A2C76"/>
<path fill-rule="evenodd" clip-rule="evenodd" d="M51.3576 50.849L51.1778 49.3042C48.1661 50.1058 40.1189 47.0642 40.1189 47.0642C40.1189 47.0642 37.2012 49.6342 37.5843 55.7948C37.7713 58.8017 38.1128 71.5792 38.4695 75.3602C38.5985 76.7306 38.7114 77.7058 38.7576 78.0953C38.7584 78.0971 38.7584 78.0981 38.7584 78.0991C38.7726 78.2179 38.7312 78.3301 38.6709 78.4338C38.1457 79.327 37.7109 80.2569 37.3542 81.2086C33.853 90.558 37.8934 102.072 37.8934 102.072L38.9419 101.648C38.9419 101.648 41.2413 88.8347 43.1095 83.174C43.4267 82.2139 43.7308 81.4594 44.0093 81.0086C44.8215 79.6948 45.5754 77.5483 46.2597 74.9952C47.5529 70.1683 48.5938 63.889 49.2866 59.0422C49.382 59.0466 51.3576 50.849 51.3576 50.849Z" fill="#6139BC"/>
<path fill-rule="evenodd" clip-rule="evenodd" d="M75.0852 48.8755C74.4369 49.4501 72.7165 47.4764 72.4796 47.214C72.4673 47.1892 72.4547 47.1766 72.4547 47.1766L72.9784 45.7149C72.9784 45.7149 75.2349 45.6275 75.6088 46.0022C75.9828 46.3771 75.7958 48.2634 75.0852 48.8755Z" fill="#FFB894"/>
<path fill-rule="evenodd" clip-rule="evenodd" d="M72.9783 45.7147L72.7539 47.2264C72.7539 47.2264 72.6543 47.2264 72.4796 47.2139C71.9311 47.1763 70.5972 47.1016 69.0887 46.939C66.8199 46.7143 64.1271 46.3143 63.0549 45.6524C61.4218 44.6531 58.7414 41.5923 56.9962 38.5315C56.9462 38.4567 56.9089 38.3818 56.8715 38.3067C55.9613 36.6826 55.3256 35.0711 55.2757 33.7844C55.2383 32.9974 55.3256 32.3228 55.4876 31.7357C55.6996 30.9612 56.0487 30.349 56.4102 29.8867C56.46 29.8118 56.5099 29.7369 56.5847 29.6743C57.1831 28.9624 57.7691 28.6625 57.7691 28.6625C58.0683 28.5375 58.3924 28.6876 58.7289 29.0498V29.0623C59.0032 29.3497 59.3024 29.7868 59.5892 30.3365C59.6015 30.349 59.614 30.3616 59.614 30.374C59.6764 30.4864 59.7388 30.6114 59.8136 30.7487C59.8385 30.7738 59.851 30.8113 59.8634 30.8362C60.0005 31.1236 60.1377 31.4234 60.2748 31.7357C61.8083 35.0835 63.4414 40.1556 64.8003 41.6672C65.3862 42.3168 68.0665 43.5911 70.1983 44.5405C71.7317 45.2152 72.9783 45.7147 72.9783 45.7147Z" fill="#FFB894"/>
<path fill-rule="evenodd" clip-rule="evenodd" d="M57.1113 32.1113C56.1659 32.5508 55.0239 32.8499 53.6427 32.9254C48.4648 33.2098 47.2893 28.6612 47.0755 25.6423C47.8219 25.3714 48.4756 25.397 48.8522 25.4172C49.2193 25.4375 49.6025 25.4752 49.9186 25.5143C50.5521 25.1827 51.6899 23.5722 52.3476 20.8782L52.5708 20.9819L56.307 22.742C56.307 22.742 55.9103 23.9604 55.6171 25.1262C55.3885 26.0385 55.2243 26.92 55.3616 27.1666C55.6561 27.2865 55.8323 27.3621 55.8323 27.3621C55.8323 27.3621 55.8323 27.3634 55.8336 27.366C55.8713 27.4617 56.6836 29.5359 57.1113 32.1113Z" fill="#FFB894"/>
<path fill-rule="evenodd" clip-rule="evenodd" d="M58.4064 35.5158C58.3675 35.6195 58.3244 35.7206 58.2773 35.8245C56.9661 38.6546 54.5384 50.3784 54.5384 50.3784C54.884 52.4862 38.7302 49.9646 38.6885 48.0455C38.1195 46.0105 40.7072 42.7409 42.1665 41.1007C42.3493 40.8945 42.5135 40.6735 42.656 40.4403C43.0164 39.8553 43.2451 39.195 43.3176 38.505C43.6043 35.7844 43.4953 33.2348 43.5194 31.6843L43.5195 31.6842C43.8045 31.4726 44.0802 31.2772 44.3372 31.0911C44.7299 30.8042 45.0769 30.536 45.3324 30.2637C45.6135 29.9672 45.7897 29.664 45.8099 29.3217C45.8246 29.0628 45.8167 28.7974 45.7897 28.532C45.7775 28.4066 45.7615 28.2812 45.7426 28.1559C45.5408 26.8391 44.9921 25.6451 44.9921 25.6451C46.3815 25.0817 48.8521 25.4173 48.8521 25.4173C48.8521 25.4173 48.8494 25.5547 48.8481 25.7798C48.84 26.6842 48.8481 29.0063 49.1372 29.4456C49.499 29.9928 56.1174 32.3904 56.467 31.6478C56.8113 30.9174 55.8686 27.4955 55.8336 27.3661C55.8323 27.3635 55.8323 27.362 55.8323 27.362C58.0486 28.2341 58.8409 28.9659 58.8409 28.9659C57.5054 29.8338 59.4393 32.7704 58.4064 35.5158Z" fill="#FF7042"/>
<path fill-rule="evenodd" clip-rule="evenodd" d="M56.3071 22.743C56.3071 22.743 55.9099 23.9601 55.6173 25.1271C53.4333 24.5164 52.7702 22.216 52.5705 20.9829L56.3071 22.743Z" fill="#F2AC8C"/>
<path fill-rule="evenodd" clip-rule="evenodd" d="M56.767 24.0316C56.767 24.0316 51.5422 22.8199 52.3452 19.5709C53.1484 16.322 53.0149 13.9776 56.3848 14.6138C59.7546 15.2501 60.094 16.6501 60.089 17.7998C60.0842 18.9497 58.1469 24.263 56.767 24.0316Z" fill="#FFB894"/>
<path fill-rule="evenodd" clip-rule="evenodd" d="M60.3829 15.9554C59.8211 14.7778 59.1601 14.8407 58.7466 15.0494C56.2915 12.7733 53.8835 14.6328 53.8835 14.6328C52.9567 16.8766 50.948 17.7934 50.948 17.7934C50.948 17.7934 51.7505 18.6169 54.0769 18.5988C54.7876 18.5933 55.5021 18.2663 56.1522 17.8158C54.8983 19.0813 53.4278 19.8519 53.4278 19.8519C56.3401 19.2934 58.2928 15.915 58.4929 15.5562C58.7395 15.9213 59.2116 16.6983 59.2512 17.3546C59.3052 18.2464 58.999 19.9782 59.5087 20.0438C59.5087 20.0438 61.2253 17.7215 60.3829 15.9554Z" fill="#4E306D"/>
<path fill-rule="evenodd" clip-rule="evenodd" d="M58.8414 28.9653C58.8414 28.9653 60.0994 31.1644 60.2877 31.7303C60.2877 31.7303 58.6562 31.6674 57.9975 32.925C57.9975 32.925 57.8396 29.2617 58.8414 28.9653Z" fill="#FF7042"/>
<path fill-rule="evenodd" clip-rule="evenodd" d="M50.189 46.439C47.0029 46.4053 44.305 43.0899 42.6561 40.4403C43.0165 39.8553 43.2452 39.195 43.3177 38.505C43.6043 35.7844 43.4953 33.2347 43.5194 31.6843L43.5195 31.6842C43.8046 31.4726 44.0803 31.2772 44.3373 31.0911C44.73 30.8042 45.077 30.536 45.3325 30.2637C47.9416 34.6829 54.509 46.4847 50.189 46.439Z" fill="#FF4A1E"/>
<path fill-rule="evenodd" clip-rule="evenodd" d="M43.9893 102.93H35.6923C35.6923 102.93 35.4934 101.663 35.9268 100.701C36.342 99.7791 36.9924 99.3598 36.8367 98.2437C37.3639 98.7876 38.2233 99.3968 39.4226 99.2352C39.5697 99.4739 40.3714 100.752 40.8624 101.105C41.4045 101.496 43.8223 101.356 43.9893 102.93Z" fill="#4A2C6A"/>
<path fill-rule="evenodd" clip-rule="evenodd" d="M61.804 102.93H53.507C53.507 102.93 53.1968 101.604 53.7415 100.701C54.2237 99.903 54.0389 99.4481 53.6818 98.7877C54.0577 98.9418 54.5439 99.082 55.0793 99.0513C55.4927 99.0276 55.9298 98.8396 56.3131 98.6165C56.6703 99.0243 58.1993 100.761 58.6771 101.105C59.2194 101.495 61.6371 101.356 61.804 102.93Z" fill="#4A2C6A"/>
<path fill-rule="evenodd" clip-rule="evenodd" d="M70.0977 43.5579L69.691 43.4575C71.0395 40.6796 73.4383 38.5684 75.4062 37.4712C77.1291 36.5109 78.5541 36.0752 79.0656 35.9343C79.1903 35.9 79.3224 35.9312 79.4194 36.0168L79.7948 36.3481C79.9803 36.5118 79.9109 36.8252 79.6731 36.8939C77.8494 37.4213 72.134 39.363 70.0977 43.5579Z" fill="#4A2C76"/>
<path fill-rule="evenodd" clip-rule="evenodd" d="M62.9551 45.2985C64.2256 40.1368 67.1278 40.8541 70.7077 41.739C74.2878 42.6238 77.1899 43.3411 75.9194 48.5029C75.0088 52.2022 71.3686 54.4837 67.7886 53.5989C64.2086 52.7141 62.0446 48.9979 62.9551 45.2985Z" fill="#FF4A1E"/>
<path fill-rule="evenodd" clip-rule="evenodd" d="M64.8708 44C64.8708 43.1067 66.1494 41.9873 67.0407 41.9873C67.9322 41.9873 68.4754 42.9091 68.4754 43.8023C68.4754 44.6956 67.3762 45.6174 66.4848 45.6174C65.5934 45.6174 64.8708 44.8933 64.8708 44Z" fill="#EAEAEA"/>
<path fill-rule="evenodd" clip-rule="evenodd" d="M62.2321 48.1759L61.7957 49.7748C61.7957 49.7748 61.2472 49.675 60.3745 49.5125C60.1128 49.4625 59.9632 49.4252 59.9632 49.4252C59.2651 49.2877 58.4297 49.1003 57.5196 48.9004H57.5073C55.9489 48.5255 54.2035 48.076 52.7325 47.5761C51.6977 47.2139 50.8001 46.8268 50.1893 46.4394C50.127 46.4019 50.0771 46.3644 50.0148 46.3143C48.5562 45.2527 46.8233 42.1295 45.4769 38.7815C45.2899 38.3193 45.1154 37.857 44.9408 37.4074C44.3175 35.7333 43.8188 34.0843 43.5196 32.6601C43.3325 31.8107 43.208 31.036 43.183 30.3989C43.1705 30.1741 43.1581 29.9619 43.1705 29.7618C43.1955 26.1391 44.9907 25.6394 44.9907 25.6394C45.0281 25.6268 45.0655 25.6143 45.1154 25.6019C45.427 25.5519 45.7511 25.7642 46.0878 26.1765C46.5116 26.6887 46.9604 27.5257 47.4217 28.5375C48.1322 30.1491 48.8804 32.2354 49.5785 34.3092C49.9649 35.4459 50.3388 36.5828 50.7129 37.6321C50.9248 38.2692 51.1368 38.8688 51.3362 39.4187C51.7227 40.4679 52.0718 41.3174 52.3834 41.8545C52.5828 42.2044 53.1563 42.6916 53.9168 43.2413C55.2382 44.2032 57.1705 45.3651 58.8536 46.3143C59.5517 46.7142 60.2124 47.0765 60.761 47.3763C61.6461 47.8636 62.2321 48.1759 62.2321 48.1759Z" fill="#FFB894"/>
<path fill-rule="evenodd" clip-rule="evenodd" d="M47.4173 28.5429C45.0173 27.8798 43.166 29.7576 43.166 29.7576C43.1961 26.1407 44.9928 25.6455 44.9928 25.6455C45.7157 25.3456 46.5534 26.6 47.4173 28.5429Z" fill="#FF7042"/>
<path fill-rule="evenodd" clip-rule="evenodd" d="M62.2322 48.1761C62.2322 48.1761 63.0151 48.1933 63.4578 47.9221C63.9005 47.651 65.1551 47.2815 65.7208 47.343C65.7208 47.343 65.9299 47.4291 65.8561 47.6263C65.7823 47.8235 64.8599 47.9837 64.8599 48.3534C64.8599 48.3534 66.016 48.3166 66.3604 48.1686C66.7048 48.0207 68.0325 48.3604 68.291 48.5137C68.5495 48.6669 66.6064 49.8395 65.7455 50.313C64.8845 50.7865 61.7958 49.775 61.7958 49.775L62.2322 48.1761Z" fill="#FFB894"/>
<path fill-rule="evenodd" clip-rule="evenodd" d="M61.6462 159.33C61.3636 159.33 61.1218 159.099 61.0734 158.784L58.266 140.287L54.2277 113.684L53.0984 106.244L55.9748 106.149L56.4739 110.467L59.9778 140.815L62.0551 158.804C62.0871 159.083 61.8953 159.33 61.6462 159.33Z" fill="#FF9F23"/>
<path fill-rule="evenodd" clip-rule="evenodd" d="M32.2138 106.244L30.9338 114.675V114.676L27.3986 137.965L24.238 158.784C24.1904 159.099 23.9488 159.33 23.666 159.33C23.4168 159.33 23.2243 159.083 23.257 158.804L25.9826 135.202L28.8974 109.957L29.3375 106.149L32.2138 106.244Z" fill="#FF9F23"/>
<path fill-rule="evenodd" clip-rule="evenodd" d="M30.9337 114.675C31.1017 111.052 28.8973 109.957 28.8973 109.957L29.3375 106.149L32.2137 106.244L30.9337 114.675Z" fill="#EE8914"/>
<path fill-rule="evenodd" clip-rule="evenodd" d="M56.4739 110.467C54.6104 111.423 54.2277 113.683 54.2277 113.683L53.0985 106.244L55.9748 106.149L56.4739 110.467Z" fill="#EE8914"/>
<path fill-rule="evenodd" clip-rule="evenodd" d="M64.5074 106.244H20.8047C20.109 106.244 19.5398 105.674 19.5398 104.977V104.591C19.5398 103.894 20.109 103.323 20.8048 103.323H64.5073C65.2032 103.323 65.7723 103.894 65.7723 104.591V104.977C65.7723 105.674 65.2032 106.244 64.5074 106.244Z" fill="#FF9F23"/>
<path fill-rule="evenodd" clip-rule="evenodd" d="M207.081 159.076H196.451C195.881 158.592 196.845 157.492 197.852 157.418C198.29 157.385 198.843 157.477 199.475 157.611C199.621 155.664 200.457 146.912 203.605 147.263C207.145 147.657 203.605 151.118 202.604 153.166C201.863 154.684 201.081 156.86 200.723 157.887C201.011 157.95 201.308 158.011 201.612 158.067C202.081 156.623 203.827 151.767 206.047 152.05C208.654 152.382 207.606 154.329 205.759 155.484C204.403 156.334 202.739 157.542 201.948 158.125C202.618 158.235 203.317 158.309 204.027 158.292C205.848 158.249 206.737 158.787 207.081 159.076Z" fill="#1FB79B"/>
<path fill-rule="evenodd" clip-rule="evenodd" d="M100.386 142.675C100.843 144.967 101.401 146.95 102.05 148.664C107.084 161.954 117.576 159.089 127.818 159.089C139.381 159.089 139.358 151.328 139.358 140.837C139.358 130.346 132.953 122.01 121.39 122.01C109.828 122.01 98.3423 132.387 100.386 142.675Z" fill="#FFDD71"/>
<path fill-rule="evenodd" clip-rule="evenodd" d="M146.395 144.247C146.467 133.619 138.755 125.08 128.457 122.246C117.95 119.354 109.223 126.428 109.24 136.736C109.256 147.091 118.164 157.348 128.821 158.726C139.13 160.059 146.325 154.585 146.395 144.247Z" fill="#EE8914"/>
<path fill-rule="evenodd" clip-rule="evenodd" d="M145.469 143.991C145.538 133.892 138.21 125.779 128.426 123.086C118.441 120.337 110.15 127.06 110.165 136.854C110.181 146.693 118.645 156.438 128.771 157.748C138.566 159.015 145.403 153.814 145.469 143.991Z" fill="#EAEAEA"/>
<path fill-rule="evenodd" clip-rule="evenodd" d="M127.65 138.076L130.514 127.277C130.727 126.473 130.102 125.526 129.233 125.337C128.172 125.106 126.713 124.858 125.161 124.806C123.366 124.745 121.857 124.896 120.815 125.057C120.007 125.183 119.684 126.091 120.16 126.896L126.767 138.058C127.004 138.457 127.546 138.469 127.65 138.076Z" fill="#FFC22A"/>
<path fill-rule="evenodd" clip-rule="evenodd" d="M130.13 141.391L140.867 148.116C141.666 148.616 142.579 148.307 142.736 147.48C142.928 146.472 143.123 145.06 143.123 143.486C143.123 141.664 142.923 140.062 142.729 138.934C142.579 138.061 141.673 137.411 140.896 137.618L130.119 140.491C129.733 140.594 129.74 141.147 130.13 141.391Z" fill="#FFC22A"/>
<path fill-rule="evenodd" clip-rule="evenodd" d="M129.468 139.392L140.087 136.562C140.877 136.351 141.126 135.394 140.595 134.6C139.948 133.632 139.003 132.332 137.835 131.052C136.483 129.57 135.191 128.421 134.253 127.654C133.526 127.06 132.568 127.231 132.314 128.001L128.794 138.668C128.668 139.05 129.082 139.495 129.468 139.392Z" fill="#FFC22A"/>
<path fill-rule="evenodd" clip-rule="evenodd" d="M128.446 142.391L131.73 154.273C131.975 155.157 132.931 155.737 133.69 155.46C134.617 155.122 135.856 154.589 137.066 153.821C138.467 152.933 139.541 151.991 140.255 151.286C140.808 150.739 140.595 149.696 139.823 149.175L129.13 141.943C128.747 141.684 128.327 141.959 128.446 142.391Z" fill="#FFC22A"/>
<path fill-rule="evenodd" clip-rule="evenodd" d="M125.84 138.401L118.666 127.755C118.132 126.963 117.098 126.746 116.548 127.314C115.876 128.007 115.007 129.013 114.249 130.244C113.372 131.669 112.794 133.022 112.44 134.001C112.165 134.76 112.73 135.723 113.584 135.951L125.417 139.111C125.841 139.224 126.1 138.788 125.84 138.401Z" fill="#FFC22A"/>
<path fill-rule="evenodd" clip-rule="evenodd" d="M125.414 140.084L113.727 138.048C112.857 137.896 112.228 138.596 112.439 139.483C112.696 140.564 113.118 142.047 113.769 143.607C114.522 145.412 115.35 146.913 115.977 147.946C116.463 148.747 117.483 149.001 118.042 148.46L125.795 140.971C126.073 140.703 125.839 140.158 125.414 140.084Z" fill="#FFC22A"/>
<path fill-rule="evenodd" clip-rule="evenodd" d="M126.464 141.901L120.161 150.539C119.692 151.182 120.024 152.228 120.843 152.682C121.841 153.236 123.237 153.935 124.788 154.492C126.582 155.137 128.153 155.499 129.258 155.699C130.114 155.854 130.727 155.155 130.499 154.283L127.35 142.208C127.237 141.775 126.693 141.587 126.464 141.901Z" fill="#FFC22A"/>
<path fill-rule="evenodd" clip-rule="evenodd" d="M100.712 88.123C100.76 87.9303 96.5322 90.0375 96.3178 90.2758C94.3352 92.4795 94.9004 95.3555 96.0349 95.3831C96.7624 95.4006 96.6215 96.6127 96.6215 96.6127L104.727 93.1769C104.727 93.1769 103.751 87.4742 100.712 88.123Z" fill="#1FB79B"/>
<path fill-rule="evenodd" clip-rule="evenodd" d="M101.71 88.5679C101.71 88.5679 101.999 85.4038 98.4715 85.4038C98.4715 85.4038 99.5404 85.6943 100.094 86.2755C100.094 86.2755 97.8434 84.9518 95.3946 86.9858C92.9459 89.02 94.4674 94.1212 93.7228 95.0898C92.9782 96.0584 90.0784 96.2521 90.4327 99.3839C90.7871 102.516 99.6359 106.438 99.0676 109.03C99.0676 109.03 102.535 103.921 100.056 101.59C100.056 101.59 101.264 102.731 101.388 104.087C101.388 104.087 101.715 101.44 100.034 100.593C98.5465 99.8435 97.3278 97.1027 97.4567 96.6128C97.5856 96.1229 101.71 88.5679 101.71 88.5679Z" fill="#1FB79B"/>
<path fill-rule="evenodd" clip-rule="evenodd" d="M98.5062 103.454C97.9622 100.828 94.5654 100.015 92.9584 102.158C92.6695 102.544 92.466 102.999 92.3997 103.537C92.0328 106.517 96.7873 118.654 97.4682 119.753C98.7077 121.754 106.007 128.612 106.007 128.612L107.352 127.795C107.352 127.795 102.175 119.012 101.373 118.19C100.446 117.24 99.539 108.438 98.5062 103.454Z" fill="#F2AC8C"/>
<path fill-rule="evenodd" clip-rule="evenodd" d="M105.495 127.799C105.495 127.799 107.459 126.507 108.202 126.59C108.945 126.674 111.097 127.294 111.123 127.611C111.149 127.928 108.726 128.125 108.563 128.299C108.401 128.472 106.755 129.572 106.159 129.227C105.562 128.882 105.495 127.799 105.495 127.799Z" fill="#F2AC8C"/>
<path fill-rule="evenodd" clip-rule="evenodd" d="M91.8002 156.983L90.0461 156.725C90.0461 156.725 84.1487 152.029 83.2703 143.266C83.1807 142.374 83.1621 141.468 83.2284 140.556C83.2361 140.451 83.2245 140.345 83.1671 140.257C83.1671 140.256 83.1666 140.256 83.1652 140.255C82.9765 139.965 82.5067 139.238 81.8707 138.205C81.2436 137.187 80.1708 135.263 78.9902 133.104C76.8637 129.215 74.3879 124.564 73.5387 123.083C70.8328 118.362 72.137 115.188 72.137 115.188C72.137 115.188 79.6856 114.44 81.754 112.627L82.4989 113.777C82.4989 113.777 84.1344 121.033 84.0571 121.066C84.1376 121.313 84.2195 121.564 84.3027 121.82C85.5933 125.812 87.078 130.802 87.8874 134.865C88.3423 137.152 88.5833 139.144 88.4539 140.501C88.4093 140.967 88.4635 141.682 88.5873 142.566C89.318 147.773 91.8002 156.983 91.8002 156.983Z" fill="#EAEAEA"/>
<path fill-rule="evenodd" clip-rule="evenodd" d="M95.4794 159.207H88.1617C88.1617 159.207 87.9863 158.09 88.3685 157.242C88.7347 156.428 89.2568 156.402 88.4351 155.127C88.9002 155.607 90.3949 155.805 91.453 155.663C91.5824 155.873 92.2885 157.286 92.7216 157.598C93.1997 157.942 95.3322 157.819 95.4794 159.207Z" fill="#4A2C6A"/>
<path fill-rule="evenodd" clip-rule="evenodd" d="M84.3026 121.82C83.6633 125.353 82.1535 131.232 78.9903 133.104C76.8637 129.215 74.3878 124.564 73.5386 123.083C70.8327 118.362 72.137 115.188 72.137 115.188C72.137 115.188 79.6855 114.44 81.7541 112.627L82.499 113.777C82.499 113.777 84.1344 121.033 84.0572 121.066C84.1377 121.313 84.2195 121.564 84.3026 121.82Z" fill="#C8D1CE"/>
<path fill-rule="evenodd" clip-rule="evenodd" d="M97.7234 101.825C97.7234 101.825 98.7581 102.903 99.2307 104.195C99.2307 104.195 97.5801 108.944 93.7228 109.54C93.7228 109.54 96.7747 101.823 97.7234 101.825Z" fill="#744DA5"/>
<path fill-rule="evenodd" clip-rule="evenodd" d="M79.1704 115.733L79.1952 114.362C76.4683 114.706 69.7927 111.096 69.7927 111.096C69.7927 111.096 66.94 112.998 66.5495 118.428C66.3589 121.078 65.153 132.287 65.0196 135.633C64.971 136.846 64.9548 137.712 64.9494 138.058C64.95 138.06 64.9499 138.061 64.9497 138.062C64.948 138.167 64.8987 138.26 64.8338 138.344C64.2695 139.063 63.78 139.824 63.3562 140.613C59.1952 148.371 61.3712 158.913 61.3712 158.913L62.3374 158.666C62.3374 158.666 65.8558 147.739 68.1553 143.012C68.5455 142.21 68.9001 141.587 69.1966 141.225C70.0612 140.173 70.9729 138.386 71.8716 136.235C73.5702 132.169 75.2194 126.804 76.3955 122.65C76.4784 122.665 79.1704 115.733 79.1704 115.733Z" fill="#EAEAEA"/>
<path fill-rule="evenodd" clip-rule="evenodd" d="M95.1278 106.58C90.67 105.554 93.5179 99.2774 93.7763 99.3878C94.394 99.2618 95.7506 98.175 96.9641 96.0525L97.1279 96.195L99.866 98.6004C99.866 98.6004 99.233 99.5361 98.7005 100.452C98.2846 101.17 97.9309 101.877 97.9872 102.119C98.2075 102.293 96.3169 106.854 95.1278 106.58Z" fill="#FFB894"/>
<path fill-rule="evenodd" clip-rule="evenodd" d="M99.8658 98.6012C99.8658 98.6012 99.2328 99.5356 98.7006 100.453C96.9983 99.4015 96.9965 97.2897 97.1276 96.1958L99.8658 98.6012Z" fill="#F2AC8C"/>
<path fill-rule="evenodd" clip-rule="evenodd" d="M99.9418 99.8059C99.9418 99.8059 95.8087 97.5012 97.2804 94.9439C98.7522 92.3868 99.2102 90.3671 101.911 91.7304C104.612 93.0938 104.559 94.3633 104.275 95.3365C103.991 96.3098 101.055 100.34 99.9418 99.8059Z" fill="#FFB894"/>
<path fill-rule="evenodd" clip-rule="evenodd" d="M104.973 93.8451C104.784 92.7097 104.208 92.6012 103.807 92.6771C102.28 90.1477 99.7868 91.1347 99.7868 91.1347C98.4548 92.8097 96.5291 93.0956 96.5291 93.0956C96.5291 93.0956 97.0087 93.9899 98.9848 94.5433C99.5885 94.7126 100.274 94.61 100.934 94.3872C99.5634 95.1532 98.1294 95.4467 98.1294 95.4467C100.734 95.6855 103.212 93.2997 103.468 93.0446C103.589 93.4142 103.799 94.1883 103.673 94.7542C103.502 95.5232 102.821 96.9161 103.237 97.0963C103.237 97.0963 105.257 95.5478 104.973 93.8451Z" fill="#1FB79B"/>
<path fill-rule="evenodd" clip-rule="evenodd" d="M67.1903 159.207H59.8726C59.8726 159.207 59.6972 158.09 60.0794 157.242C60.4457 156.428 61.0193 156.058 60.8819 155.074C61.3469 155.554 62.1048 156.091 63.1628 155.948C63.2923 156.159 63.9994 157.286 64.4326 157.598C64.9106 157.942 67.0432 157.819 67.1903 159.207Z" fill="#4A2C6A"/>
<path fill-rule="evenodd" clip-rule="evenodd" d="M95.6523 111.556C94.7109 111.886 93.3892 112.066 92.0373 112.213C90.1131 112.423 88.1264 112.567 87.0858 112.983C86.7063 113.135 86.4524 113.322 86.373 113.562C85.922 114.921 83.934 117.018 83.934 117.018C71.1916 116.437 69.7928 111.096 69.7928 111.096C78.3658 101.107 92.8815 98.2153 92.8815 98.2153C92.8815 98.2153 93.9183 97.7749 96.5294 99.8541C98.2718 101.242 98.0425 101.775 98.0425 101.775C98.0425 101.775 98.4233 110.588 95.6523 111.556Z" fill="#744DA5"/>
<path fill-rule="evenodd" clip-rule="evenodd" d="M92.0373 112.213C90.1131 112.423 88.1264 112.567 87.0858 112.983C86.6605 106.615 89.6594 101.825 89.6594 101.825C89.6594 101.825 91.6159 109.803 92.0373 112.213Z" fill="#56309E"/>
<path fill-rule="evenodd" clip-rule="evenodd" d="M94.0177 100.593C94.0177 100.593 89.1952 101.07 88.8085 104.21C88.4219 107.35 93.4322 120.14 94.1496 121.298C95.4558 123.406 103.148 130.634 103.148 130.634L104.565 129.773C104.565 129.773 99.1095 120.517 98.2648 119.651C96.9385 118.291 95.6507 101.68 94.0177 100.593Z" fill="#FFB894"/>
<path fill-rule="evenodd" clip-rule="evenodd" d="M88.9478 106.1C88.9604 106.171 93.3985 107.552 96.2546 106.1C96.2546 106.1 96.8658 99.4961 93.4559 99.8544C90.0461 100.213 88.027 101.289 87.9411 102.925C87.8552 104.561 88.9478 106.1 88.9478 106.1Z" fill="#744DA5"/>
<path fill-rule="evenodd" clip-rule="evenodd" d="M102.709 129.716C102.709 129.716 104.439 128.124 105.186 128.086C105.933 128.048 108.156 128.313 108.233 128.621C108.31 128.93 105.95 129.516 105.817 129.713C105.685 129.911 104.238 131.263 103.594 131.018C102.95 130.774 102.709 129.716 102.709 129.716Z" fill="#FFB894"/>
</svg>
