<svg width="48" height="48" viewBox="0 0 48 48" fill="none" xmlns="http://www.w3.org/2000/svg">
<path d="M5.49988 8.99991C5.30111 8.99709 5.10377 9.03382 4.91931 9.10794C4.73486 9.18206 4.56698 9.2921 4.42543 9.43167C4.28387 9.57123 4.17147 9.73754 4.09475 9.92093C4.01802 10.1043 3.97852 10.3011 3.97852 10.4999C3.97852 10.6987 4.01802 10.8955 4.09475 11.0789C4.17147 11.2623 4.28387 11.4286 4.42543 11.5681C4.56698 11.7077 4.73486 11.8178 4.91931 11.8919C5.10377 11.966 5.30111 12.0027 5.49988 11.9999H42.4999C42.6986 12.0027 42.896 11.966 43.0804 11.8919C43.2649 11.8178 43.4328 11.7077 43.5743 11.5681C43.7159 11.4286 43.8283 11.2623 43.905 11.0789C43.9817 10.8955 44.0212 10.6987 44.0212 10.4999C44.0212 10.3011 43.9817 10.1043 43.905 9.92093C43.8283 9.73754 43.7159 9.57123 43.5743 9.43167C43.4328 9.2921 43.2649 9.18206 43.0804 9.10794C42.896 9.03382 42.6986 8.99709 42.4999 8.99991H5.49988ZM5.49988 22.4999C5.30111 22.4971 5.10377 22.5338 4.91931 22.6079C4.73486 22.6821 4.56698 22.7921 4.42543 22.9317C4.28387 23.0712 4.17147 23.2375 4.09475 23.4209C4.01802 23.6043 3.97852 23.8011 3.97852 23.9999C3.97852 24.1987 4.01802 24.3955 4.09475 24.5789C4.17147 24.7623 4.28387 24.9286 4.42543 25.0681C4.56698 25.2077 4.73486 25.3178 4.91931 25.3919C5.10377 25.466 5.30111 25.5027 5.49988 25.4999H42.4999C42.6986 25.5027 42.896 25.466 43.0804 25.3919C43.2649 25.3178 43.4328 25.2077 43.5743 25.0681C43.7159 24.9286 43.8283 24.7623 43.905 24.5789C43.9817 24.3955 44.0212 24.1987 44.0212 23.9999C44.0212 23.8011 43.9817 23.6043 43.905 23.4209C43.8283 23.2375 43.7159 23.0712 43.5743 22.9317C43.4328 22.7921 43.2649 22.6821 43.0804 22.6079C42.896 22.5338 42.6986 22.4971 42.4999 22.4999H5.49988ZM5.49988 35.9999C5.30111 35.9971 5.10377 36.0338 4.91931 36.1079C4.73486 36.1821 4.56698 36.2921 4.42543 36.4317C4.28387 36.5712 4.17147 36.7375 4.09475 36.9209C4.01802 37.1043 3.97852 37.3011 3.97852 37.4999C3.97852 37.6987 4.01802 37.8955 4.09475 38.0789C4.17147 38.2623 4.28387 38.4286 4.42543 38.5681C4.56698 38.7077 4.73486 38.8178 4.91931 38.8919C5.10377 38.966 5.30111 39.0027 5.49988 38.9999H42.4999C42.6986 39.0027 42.896 38.966 43.0804 38.8919C43.2649 38.8178 43.4328 38.7077 43.5743 38.5681C43.7159 38.4286 43.8283 38.2623 43.905 38.0789C43.9817 37.8955 44.0212 37.6987 44.0212 37.4999C44.0212 37.3011 43.9817 37.1043 43.905 36.9209C43.8283 36.7375 43.7159 36.5712 43.5743 36.4317C43.4328 36.2921 43.2649 36.1821 43.0804 36.1079C42.896 36.0338 42.6986 35.9971 42.4999 35.9999H5.49988Z" fill="white"/>
</svg>
