<svg width="48" height="48" viewBox="0 0 48 48" fill="none" xmlns="http://www.w3.org/2000/svg">
<path d="M5.5 9.00003C5.30123 8.99722 5.10389 9.03394 4.91944 9.10806C4.73498 9.18218 4.5671 9.29222 4.42555 9.43179C4.28399 9.57135 4.17159 9.73766 4.09487 9.92105C4.01815 10.1044 3.97864 10.3012 3.97864 10.5C3.97864 10.6988 4.01815 10.8956 4.09487 11.079C4.17159 11.2624 4.28399 11.4287 4.42555 11.5683C4.5671 11.7078 4.73498 11.8179 4.91944 11.892C5.10389 11.9661 5.30123 12.0028 5.5 12H42.5C42.6988 12.0028 42.8961 11.9661 43.0806 11.892C43.265 11.8179 43.4329 11.7078 43.5745 11.5683C43.716 11.4287 43.8284 11.2624 43.9051 11.079C43.9819 10.8956 44.0214 10.6988 44.0214 10.5C44.0214 10.3012 43.9819 10.1044 43.9051 9.92105C43.8284 9.73766 43.716 9.57135 43.5745 9.43179C43.4329 9.29222 43.265 9.18218 43.0806 9.10806C42.8961 9.03394 42.6988 8.99722 42.5 9.00003H5.5ZM5.5 22.5C5.30123 22.4972 5.10389 22.5339 4.91944 22.6081C4.73498 22.6822 4.5671 22.7922 4.42555 22.9318C4.28399 23.0714 4.17159 23.2377 4.09487 23.421C4.01815 23.6044 3.97864 23.8012 3.97864 24C3.97864 24.1988 4.01815 24.3956 4.09487 24.579C4.17159 24.7624 4.28399 24.9287 4.42555 25.0683C4.5671 25.2078 4.73498 25.3179 4.91944 25.392C5.10389 25.4661 5.30123 25.5028 5.5 25.5H42.5C42.6988 25.5028 42.8961 25.4661 43.0806 25.392C43.265 25.3179 43.4329 25.2078 43.5745 25.0683C43.716 24.9287 43.8284 24.7624 43.9051 24.579C43.9819 24.3956 44.0214 24.1988 44.0214 24C44.0214 23.8012 43.9819 23.6044 43.9051 23.421C43.8284 23.2377 43.716 23.0714 43.5745 22.9318C43.4329 22.7922 43.265 22.6822 43.0806 22.6081C42.8961 22.5339 42.6988 22.4972 42.5 22.5H5.5ZM5.5 36C5.30123 35.9972 5.10389 36.0339 4.91944 36.1081C4.73498 36.1822 4.5671 36.2922 4.42555 36.4318C4.28399 36.5714 4.17159 36.7377 4.09487 36.921C4.01815 37.1044 3.97864 37.3012 3.97864 37.5C3.97864 37.6988 4.01815 37.8956 4.09487 38.079C4.17159 38.2624 4.28399 38.4287 4.42555 38.5683C4.5671 38.7078 4.73498 38.8179 4.91944 38.892C5.10389 38.9661 5.30123 39.0028 5.5 39H42.5C42.6988 39.0028 42.8961 38.9661 43.0806 38.892C43.265 38.8179 43.4329 38.7078 43.5745 38.5683C43.716 38.4287 43.8284 38.2624 43.9051 38.079C43.9819 37.8956 44.0214 37.6988 44.0214 37.5C44.0214 37.3012 43.9819 37.1044 43.9051 36.921C43.8284 36.7377 43.716 36.5714 43.5745 36.4318C43.4329 36.2922 43.265 36.1822 43.0806 36.1081C42.8961 36.0339 42.6988 35.9972 42.5 36H5.5Z" fill="#1FB79B"/>
</svg>
