<svg width="224" height="165" viewBox="0 0 224 165" fill="none" xmlns="http://www.w3.org/2000/svg">
<path fill-rule="evenodd" clip-rule="evenodd" d="M34.7378 129.993C34.7378 129.993 11.9726 99.0219 30.8879 65.491C47.6707 35.74 67.2378 37.7737 81.5939 49.8469C87.7083 54.9889 105.337 50.4806 120.341 20.2079C140.803 -21.0758 211.73 3.96286 198.798 67.479C192.539 98.2162 217.844 99.3334 204.95 130.058L34.7378 129.993Z" fill="#BACAC2"/>
<path fill-rule="evenodd" clip-rule="evenodd" d="M167.601 74.2008C164.728 81.4444 149.801 124.288 189.1 145.764C189.1 145.764 206.48 120.133 168.771 74.0403C168.441 73.6371 167.788 73.7276 167.601 74.2008Z" fill="#1FB79B"/>
<path fill-rule="evenodd" clip-rule="evenodd" d="M171.92 101.93C171.858 101.608 171.798 101.288 171.738 100.97C171.428 99.2296 171.142 97.5471 170.912 95.95C170.671 94.3536 170.483 92.8437 170.316 91.4494C170.157 90.0557 170.023 88.7779 169.925 87.6455C169.821 86.513 169.752 85.5259 169.696 84.7133C169.59 83.0883 169.566 82.1595 169.566 82.1595C169.563 82.0917 169.627 82.0407 169.707 82.0455C169.719 82.0461 169.73 82.0476 169.74 82.0502C169.805 82.0664 169.855 82.118 169.857 82.1758C169.857 82.1758 169.887 83.0995 170.004 84.7224C170.065 85.5337 170.14 86.5189 170.252 87.6497C170.358 88.78 170.499 90.0559 170.667 91.4472C170.844 92.8388 171.041 94.3463 171.292 95.9391C171.512 97.3965 171.779 98.9253 172.068 100.503C172.013 100.978 171.964 101.451 171.92 101.93Z" fill="#BACAC2"/>
<path fill-rule="evenodd" clip-rule="evenodd" d="M171.681 126.841C171.681 126.841 156.383 95.569 205.275 52.1888C205.702 51.8093 206.411 52.0296 206.546 52.5821C208.611 61.0399 218.535 110.68 171.681 126.841Z" fill="#94ACA0"/>
<path fill-rule="evenodd" clip-rule="evenodd" d="M193.899 90.2478C200.06 73.0137 205.198 57.7979 205.198 57.7979C205.255 57.6283 205.265 57.4925 205.224 57.4779C205.221 57.4767 205.217 57.4763 205.213 57.4767C205.16 57.4825 205.068 57.635 205.007 57.8181C205.007 57.8181 204.046 60.683 202.311 65.7057C200.576 70.7277 196.775 81.6072 193.69 90.2055C190.99 97.7316 183.46 108.831 180.018 118.029C179.886 118.616 179.751 119.212 179.615 119.806C183.299 109.953 191.041 98.2435 193.899 90.2478Z" fill="#1FB79B"/>
<path fill-rule="evenodd" clip-rule="evenodd" d="M212.89 97.5633C212.055 105.187 205.288 149.319 160.546 149.663C160.546 149.663 157.126 119.328 211.931 96.8794C212.411 96.6831 212.945 97.0653 212.89 97.5633Z" fill="#1FB79B"/>
<path fill-rule="evenodd" clip-rule="evenodd" d="M196.272 119.97C196.464 119.713 196.654 119.456 196.843 119.202C197.862 117.801 198.836 116.441 199.728 115.132C200.629 113.828 201.449 112.576 202.201 111.418C202.947 110.257 203.621 109.186 204.203 108.229C204.789 107.274 205.282 106.432 205.688 105.739C206.495 104.349 206.927 103.539 206.927 103.539C206.959 103.48 206.932 103.407 206.866 103.375C206.857 103.371 206.847 103.367 206.838 103.365C206.78 103.35 206.717 103.374 206.69 103.424C206.69 103.424 206.255 104.227 205.441 105.61C205.032 106.3 204.534 107.137 203.943 108.088C203.356 109.04 202.677 110.105 201.925 111.26C201.166 112.411 200.34 113.657 199.433 114.953C198.611 116.143 197.72 117.376 196.79 118.643C196.622 119.086 196.45 119.527 196.272 119.97Z" fill="#BACAC2"/>
<path fill-rule="evenodd" clip-rule="evenodd" d="M56.3992 74.2008C59.2723 81.4444 74.1995 124.288 34.8997 145.764C34.8997 145.764 17.5205 120.133 55.2294 74.0403C55.5594 73.6371 56.2116 73.7276 56.3992 74.2008Z" fill="#1FB79B"/>
<path fill-rule="evenodd" clip-rule="evenodd" d="M52.0797 101.93C52.1415 101.608 52.2023 101.288 52.2624 100.97C52.5722 99.2296 52.858 97.5471 53.088 95.95C53.3293 94.3536 53.5165 92.8437 53.6843 91.4494C53.8434 90.0557 53.9767 88.7779 54.0754 87.6455C54.1795 86.513 54.2483 85.5259 54.3044 84.7133C54.41 83.0883 54.4345 82.1595 54.4345 82.1595C54.4366 82.0917 54.3731 82.0407 54.2926 82.0455C54.2813 82.0461 54.2702 82.0476 54.2596 82.0502C54.1949 82.0664 54.1453 82.118 54.1431 82.1758C54.1431 82.1758 54.1126 83.0995 53.9963 84.7224C53.9351 85.5337 53.8596 86.5189 53.7481 87.6497C53.6422 88.78 53.5006 90.0559 53.3325 91.4472C53.1558 92.8388 52.9591 94.3463 52.7077 95.9391C52.488 97.3965 52.2215 98.9253 51.9322 100.503C51.9871 100.978 52.0361 101.451 52.0797 101.93Z" fill="#BACAC2"/>
<path fill-rule="evenodd" clip-rule="evenodd" d="M52.3195 126.841C52.3195 126.841 67.6169 95.569 18.7255 52.1888C18.2978 51.8093 17.5892 52.0296 17.4543 52.5821C15.3895 61.0399 5.46533 110.68 52.3195 126.841Z" fill="#94ACA0"/>
<path fill-rule="evenodd" clip-rule="evenodd" d="M30.1009 90.2478C23.9398 73.0137 18.8018 57.7979 18.8018 57.7979C18.7451 57.6283 18.7351 57.4925 18.7759 57.4779C18.7791 57.4767 18.7827 57.4763 18.7867 57.4767C18.8395 57.4825 18.9319 57.635 18.9932 57.8181C18.9932 57.8181 19.954 60.683 21.6891 65.7057C23.4243 70.7277 27.2247 81.6072 30.3097 90.2055C33.0105 97.7316 40.5405 108.831 43.9816 118.029C44.1135 118.616 44.2489 119.212 44.3852 119.806C40.7014 109.953 32.9591 98.2435 30.1009 90.2478Z" fill="#1FB79B"/>
<path fill-rule="evenodd" clip-rule="evenodd" d="M11.1096 97.5633C11.945 105.187 18.7119 149.319 63.4541 149.663C63.4541 149.663 66.8737 119.328 12.0687 96.8794C11.5893 96.6831 11.055 97.0653 11.1096 97.5633Z" fill="#1FB79B"/>
<path fill-rule="evenodd" clip-rule="evenodd" d="M27.7285 119.97C27.5364 119.713 27.3459 119.456 27.1569 119.202C26.1382 117.801 25.164 116.441 24.2718 115.132C23.3711 113.828 22.5514 112.576 21.7986 111.418C21.0529 110.257 20.3791 109.186 19.7973 108.229C19.2112 107.274 18.7177 106.432 18.3118 105.739C17.5054 104.349 17.0728 103.539 17.0728 103.539C17.041 103.48 17.0684 103.407 17.1341 103.375C17.1432 103.371 17.1526 103.367 17.1622 103.365C17.2204 103.35 17.2825 103.374 17.31 103.424C17.31 103.424 17.7451 104.227 18.559 105.61C18.9683 106.3 19.4663 107.137 20.0575 108.088C20.644 109.04 21.3235 110.105 22.0752 111.26C22.8339 112.411 23.66 113.657 24.5671 114.953C25.3889 116.143 26.2796 117.376 27.2099 118.643C27.3777 119.086 27.5497 119.527 27.7285 119.97Z" fill="#BACAC2"/>
<path fill-rule="evenodd" clip-rule="evenodd" d="M209.544 164.478H15.375L34.2059 124.033H193.223L209.544 164.478Z" fill="#94ACA0"/>
<path fill-rule="evenodd" clip-rule="evenodd" d="M126.197 33.5982C125.706 32.314 123.916 30.1928 122.688 29.5269C119.036 27.5459 111.392 23.5222 103.17 28.232C92.2301 34.4988 95.8601 43.8216 92.4544 46.8987C89.0489 49.9757 83.1445 51.0596 86.3037 56.0098C89.4631 60.96 86.528 65.3379 87.5443 67.6953C88.5607 70.0527 99.2564 79.85 108.954 75.1951C118.652 70.5401 118.889 77.3523 125.787 77.3665C132.684 77.3808 142.884 69.5952 135.16 63.23C129.281 58.3859 140.15 53.6629 134.447 47.0069C132.778 45.0597 129.368 41.8886 126.197 33.5982Z" fill="#FFA700"/>
<path fill-rule="evenodd" clip-rule="evenodd" d="M134.738 127.848C134.329 125.93 128.597 116.344 128.187 115.133C127.778 113.922 130.549 101.504 132.487 92.8014C134.424 84.0969 128.975 69.3946 128.975 69.3946C128.975 69.3946 125.293 68.5191 120.087 67.0031C118.506 66.5427 117.392 65.1562 117.287 63.5342C117.094 60.562 117.275 57.1443 117.275 57.1443L106.002 57.3932C106.325 59.6589 106.097 62.2523 105.81 64.3657C105.641 65.6163 104.715 66.6317 103.474 66.9409C99.4455 67.9448 97.8606 68.9574 93.4944 70.9603C93.4944 70.9603 93.5574 71.423 93.6717 72.2703C93.6183 72.2287 93.5893 72.2042 93.5893 72.2042C93.5893 72.2042 93.3847 78.467 93.5212 86.5187C93.6442 93.7849 98.1004 111.833 98.9699 115.291C98.9952 115.525 99.0205 115.757 99.0453 115.989C96.0457 120.828 91.7695 127.848 91.7695 127.848C91.7695 127.848 135.148 129.765 134.738 127.848Z" fill="#FFCEAE"/>
<path fill-rule="evenodd" clip-rule="evenodd" d="M149.065 138.539C138.542 147.215 123.455 151.931 123.455 151.931C123.455 151.931 111.31 152.161 97.5374 151.931C84.1603 151.709 71.0791 135.495 71.0791 135.495C71.0791 135.495 82.2329 135.352 85.2928 132.79C87.4248 131.006 89.9996 128.037 92.502 124.814C94.3013 122.498 96.0626 120.049 97.5965 117.811C97.5965 117.811 100.756 120.853 113.596 120.526C126.435 120.197 129.562 118.798 129.562 118.798C129.562 118.798 131.077 120.628 133.077 122.945C135.489 125.737 138.605 129.235 140.612 131.09C141.495 131.905 149.065 138.539 149.065 138.539Z" fill="#FD9C7A"/>
<path fill-rule="evenodd" clip-rule="evenodd" d="M112.459 41.0965C112.459 41.0965 117.538 41.0037 118.693 42.7189C119.847 44.434 120.003 46.3503 120.584 47.317C121.166 48.2837 121.067 49.3665 121.067 49.3665C121.067 49.3665 125.439 38.0819 115.346 40.3293C114.617 40.4915 112.459 41.0965 112.459 41.0965Z" fill="#B5453C"/>
<path fill-rule="evenodd" clip-rule="evenodd" d="M53.4931 103.834C53.5442 103.816 53.5975 103.801 53.6508 103.788C53.6231 103.797 53.5698 103.814 53.4931 103.834Z" fill="#5153A0"/>
<path fill-rule="evenodd" clip-rule="evenodd" d="M149.065 138.211C138.542 146.097 123.455 150.385 123.455 150.385C123.455 150.385 111.31 150.593 97.5374 150.385C84.1603 150.184 71.0791 135.443 71.0791 135.443C71.0791 135.443 82.2329 135.312 85.2928 132.983C87.4248 131.361 89.9996 128.662 92.502 125.733C93.0752 126.057 105.165 132.838 112.326 132.506C119.604 132.167 132.869 124.158 133.077 124.033C135.489 126.57 138.605 129.753 140.612 131.438C141.495 132.177 149.065 138.211 149.065 138.211Z" fill="#EC744A"/>
<path fill-rule="evenodd" clip-rule="evenodd" d="M152.29 137.54C149.073 140.231 139.536 143.188 130.548 145.528C128.028 146.184 125.549 146.79 123.266 147.331C121.205 147.952 117.022 149.233 112.541 150.741C106.217 152.867 103.451 151.851 100.317 151.317C97.1833 150.782 93.6458 152.899 89.0043 151.26C84.3625 149.621 85.5355 140.79 85.5355 140.79C87.1077 139.792 93.2194 139.505 97.3578 142.375C101.494 145.246 107.04 144.711 107.04 144.711C107.253 144.732 107.758 144.489 108.448 144.07C108.448 144.07 112.472 141.795 119.89 136.089C122.276 134.253 125.014 132.062 128.084 129.476C133.936 124.544 138.983 118.059 144.814 116.865C154.751 114.827 158.284 118.555 158.284 118.555C158.284 118.555 160.735 130.481 152.29 137.54Z" fill="#F1BF9F"/>
<path fill-rule="evenodd" clip-rule="evenodd" d="M136.333 142.958C136.333 142.958 136.127 150.641 133.264 151.556C129.331 152.812 126.239 150.798 122.993 151.384C119.745 151.97 117.112 152.806 110.571 150.554C106.228 149.059 102.154 147.773 99.9063 147.077C98.8058 146.786 97.6648 146.48 96.5033 146.157C87.8119 143.742 77.9221 140.512 74.7595 137.599C67.1074 130.547 70.0399 118.036 70.0399 118.036C70.0399 118.036 72.5301 114.908 81.5353 116.944C86.8195 118.137 92.2767 123.295 97.5568 128.195C99.7475 130.224 101.824 132.105 103.727 133.801C110.361 139.708 114.905 143.375 114.905 143.375L114.884 143.414C115.575 143.841 116.081 144.089 116.295 144.067C116.295 144.067 119.751 145.418 125.756 143.427C129.946 142.04 134.711 141.897 136.333 142.958Z" fill="#FFCEAE"/>
<path fill-rule="evenodd" clip-rule="evenodd" d="M107.685 60.3637C107.685 60.3637 109.93 65.1977 113.62 64.9099C117.31 64.6223 118.826 60.2556 118.826 60.2556L107.685 60.3637Z" fill="#E8945B"/>
<path fill-rule="evenodd" clip-rule="evenodd" d="M101.316 54.0331C101.316 54.0331 99.4852 50.3623 98.3604 46.0907C97.5572 43.0409 98.336 31.477 110.438 32.2969C110.438 32.2969 113.942 32.3853 117.371 34.2806C120.099 35.7878 124.125 39.1708 120.678 49.4533L119.841 52.9044L101.316 54.0331Z" fill="#FFA700"/>
<path fill-rule="evenodd" clip-rule="evenodd" d="M119.584 59.9042C116.371 62.637 112.377 66.2793 103.817 59.5014C102.142 58.1754 101.554 55.4636 101.466 52.5449C101.36 49.0901 101.145 47.653 101.583 45.6627C102.103 43.2816 105.051 38.8907 109.779 38.5349C118.459 37.8839 121.372 42.9328 121.577 46.8157C122.02 55.2187 122.853 57.125 119.584 59.9042Z" fill="#FFCEAE"/>
<path fill-rule="evenodd" clip-rule="evenodd" d="M101.943 85.8107C101.943 85.8107 99.9619 89.318 96.9263 93.9497C94.7792 97.227 92.1067 101.069 89.2316 104.63C88.7167 105.269 88.1956 105.902 87.6682 106.518C83.3251 111.605 78.6757 115.747 74.7867 116.211C74.6692 116.226 74.5475 116.235 74.4259 116.243C74.3649 116.245 74.3042 116.25 74.2413 116.252C73.0532 116.29 71.729 116.022 70.3341 115.531C70.2612 115.505 70.1861 115.479 70.111 115.451C70.0786 115.44 70.0461 115.432 70.0159 115.417C61.8526 112.395 48.7974 110.732 48.7974 110.732V105.367C54.4453 104.682 71.3257 106.098 73.3533 106.205C74.0567 106.244 76.257 102.511 78.9273 97.5125C83.9436 88.1201 90.2485 72.8399 91.7692 71.1443C92.3044 70.5466 93.3672 70.1473 94.3808 69.4728C96.5438 68.0332 104.502 68.0332 104.502 68.0332L101.943 85.8107Z" fill="#FFCEAE"/>
<path fill-rule="evenodd" clip-rule="evenodd" d="M150.628 116.178C146.918 115.74 142.524 112.033 138.351 107.345C137.986 106.933 137.621 106.514 137.26 106.091C129.7 97.2277 123.146 85.7595 123.146 85.7595L120.417 68.0332C120.417 68.0332 126.13 68.1364 129.967 69.5888C131.598 70.2049 133.008 70.9153 133.712 71.6914C135.419 73.5742 142.892 91.2334 148.026 100.355C149.985 103.838 151.512 106.196 152.078 106.166C154.13 106.059 170.707 107.208 175.72 105.077L177.713 106.643V108.863C177.713 108.863 158.794 117.138 150.628 116.178Z" fill="#FFCEAE"/>
<path fill-rule="evenodd" clip-rule="evenodd" d="M115.643 115.478C115.643 115.908 115.287 116.256 114.847 116.256C114.408 116.256 114.051 115.908 114.051 115.478C114.051 115.049 114.408 114.7 114.847 114.7C115.287 114.7 115.643 115.049 115.643 115.478Z" fill="#F2A672"/>
<path fill-rule="evenodd" clip-rule="evenodd" d="M129.968 69.5968L129.967 69.5886C129.967 69.5886 124.792 77.7026 113.088 77.802C101.384 77.9019 95.1439 69.9712 95.1439 69.9712L94.4082 69.4788C93.2629 69.9888 92.3103 70.5486 91.7695 71.1442C90.233 72.8336 84.1053 88.2327 79.0371 97.5886C79.0514 97.6934 79.498 101.423 82.4851 104.141C83.7612 105.304 85.5007 106.371 87.8689 107.066C90.6613 103.844 92.6889 102.425 94.9526 99.1442C95.0408 99.0159 95.1239 98.8919 95.2108 98.7657L96.5441 108.478C102.035 110.184 108.809 111.217 112.947 111.484C113.533 111.523 114.104 111.551 114.662 111.566C125.182 111.889 130.742 108.702 130.742 108.702C130.742 108.702 130.569 103.676 131.531 99.2682C131.54 99.2255 131.549 99.1848 131.558 99.1442C133.561 101.913 137.229 105.918 139.516 108.478C141.942 107.962 143.73 106.465 145.203 105.375C147.146 103.938 148.354 102.253 149.065 100.967C143.939 91.885 136.446 74.5745 134.741 72.6997C134.039 71.9278 131.595 70.2099 129.968 69.5968Z" fill="white"/>
<path fill-rule="evenodd" clip-rule="evenodd" d="M42.8017 114.625C41.1766 114.841 35.5874 114.52 35.5874 114.52C35.5874 114.52 35.8943 113.05 38.502 112.642C41.1099 112.231 42.5394 107.573 44.2272 106.578C45.9149 105.583 49.9113 105.366 49.9113 105.366L49.5047 110.422C49.5047 110.422 44.4271 114.408 42.8017 114.625Z" fill="#FFCEAE"/>
<path fill-rule="evenodd" clip-rule="evenodd" d="M48.32 105.702C48.32 105.702 43.9405 105.069 42.3353 105.541C41.3536 105.83 40.0514 107.18 37.5943 107.599C36.747 107.743 37.3976 108.244 37.78 108.374C38.5675 108.642 43.6538 108.306 43.6538 108.306L48.32 105.702Z" fill="#FFCEAE"/>
<path fill-rule="evenodd" clip-rule="evenodd" d="M41.9538 114.389C41.6652 114.419 33.9982 115.944 33.9982 115.944C33.9982 115.944 33.9036 114.801 34.9762 114.706C36.0487 114.612 41.9538 114.389 41.9538 114.389Z" fill="#FFCEAE"/>
<path fill-rule="evenodd" clip-rule="evenodd" d="M37.1816 110.035C37.1816 110.035 37.1365 112.182 37.4397 112.603C37.7427 113.025 39.4172 113.144 39.4172 113.144C39.4172 113.144 40.3372 112.038 40.3621 111.939C40.387 111.842 38.2665 111.742 38.2163 111.637C38.1661 111.533 38.022 109.97 37.1816 110.035Z" fill="#FFB27D"/>
<path fill-rule="evenodd" clip-rule="evenodd" d="M176.204 109.131C176.204 109.131 181.324 112.39 182.921 112.506C184.519 112.621 189.968 112.08 189.968 112.08C189.968 112.08 189.611 110.804 187.046 110.566C184.481 110.33 182.944 106.203 181.212 105.515C177.868 104.185 175.644 104.98 175.644 104.98L176.204 109.131Z" fill="#FFCEAE"/>
<path fill-rule="evenodd" clip-rule="evenodd" d="M177.235 104.964C177.235 104.964 181.533 104.125 183.147 104.557C184.134 104.822 185.497 106.185 187.951 106.525C188.797 106.643 188.181 107.193 187.81 107.344C187.046 107.658 181.996 107.509 181.996 107.509L177.235 104.964Z" fill="#FFCEAE"/>
<path fill-rule="evenodd" clip-rule="evenodd" d="M183.602 112.211C183.888 112.238 191.559 113.767 191.559 113.767C191.559 113.767 191.551 112.465 190.489 112.386C189.426 112.309 183.602 112.211 183.602 112.211Z" fill="#FFCEAE"/>
<path fill-rule="evenodd" clip-rule="evenodd" d="M106.684 40.5406C106.684 40.5406 109.701 44.3112 112.455 46.0904C115.209 47.8697 119.732 47.8104 119.732 47.8104C119.732 47.8104 117.463 45.5566 117.154 43.8366C117.154 43.8366 120.275 47.8697 121.503 47.8104C122.73 47.751 121.811 38.5582 117.801 37.6091C113.791 36.6603 103.537 36.001 106.684 40.5406Z" fill="#FFA700"/>
<path fill-rule="evenodd" clip-rule="evenodd" d="M109.276 38.8428C109.276 38.8428 103.673 40.7426 103.33 44.4982C103.02 47.8885 101.431 49.3666 101.431 49.3666C101.431 49.3666 99.0386 48.4206 99.9234 45.3792C100.809 42.3377 101.435 39.2961 103.415 38.1834C105.394 37.0707 108.613 36.9221 108.613 36.9221L109.276 38.8428Z" fill="#FFA700"/>
</svg>
