<svg width="230" height="45" viewBox="0 0 230 45" fill="none" xmlns="http://www.w3.org/2000/svg">
<path d="M4.56 20.7C4.56 22.56 0 31.02 0 33.66C0 35.82 3.9 36.54 6.66 36.54C7.62 36.54 7.86 36 7.86 35.1C7.86 32.82 11.58 24 13.14 20.76C18 20.76 19.44 18.18 19.44 15.96C19.44 15.54 19.26 15.3 18.84 15.3C18.18 15.3 17.76 15.54 15.24 15.54C16.26 12.96 17.16 11.1 17.16 10.26C17.16 8.52 13.86 5.88 11.34 5.88C10.2 5.88 9.66 6.3 9.66 6.84C9.66 8.34 8.28 11.7 6.72 15.54C5.88 15.54 5.16 15.6 4.56 16.14C3.78 16.86 2.76 19.2 2.76 19.92C2.76 20.7 3.96 20.7 4.56 20.7ZM43.2877 18.84C43.2877 16.44 41.6677 14.88 38.6677 14.88C34.8277 14.88 30.6877 17.7 30.4477 17.7C30.3277 17.7 30.2677 17.64 30.2677 17.52C30.2677 16.74 34.9477 7.56 34.9477 4.98C34.9477 3.3 32.1877 0.599998 29.0677 0.599998C27.9277 0.599998 27.3877 1.02 27.3877 1.62C27.3877 6.18 15.7477 29.7 15.7477 33.66C15.7477 35.82 19.6477 36.54 22.4677 36.54C23.4277 36.54 23.6077 36 23.6077 35.1C23.6077 33.06 25.8277 27 27.6877 23.88C29.4277 20.88 32.0077 19.98 33.1477 19.98C33.7477 19.98 34.1077 20.4 34.1077 20.94C34.1077 23.34 28.5877 29.46 28.5877 36.48C28.5877 41.34 32.6677 44.64 37.6477 44.64C44.1277 44.64 47.8477 40.68 47.8477 39.48C47.8477 39.06 47.5477 38.76 47.1277 38.76C46.5877 38.76 45.7477 39.42 43.8877 39.42C40.2877 39.42 38.3677 37.08 38.3677 34.08C38.3677 28.26 43.2877 22.92 43.2877 18.84ZM65.2247 35.82C65.2247 35.1 64.8047 34.92 64.8047 33.12C64.8047 25.74 69.4847 20.4 69.4847 19.26C69.4847 17.88 65.7647 14.88 60.6047 14.88C50.8247 14.88 42.9047 23.34 42.9047 31.14C42.9047 34.5 44.8247 36.54 47.8847 36.54C53.3447 36.54 56.4047 33.18 57.1247 33.18C57.5447 33.18 59.4647 36.54 64.3247 36.54C64.9247 36.54 65.2247 36.24 65.2247 35.82ZM60.1247 18.9C60.6047 18.9 60.8447 19.14 60.8447 19.68C60.8447 21 55.8647 30.78 52.6847 30.78C51.9647 30.78 51.6047 30.3 51.6047 29.7C51.6047 25.8 56.4647 18.9 60.1247 18.9ZM85.8375 20.94C85.8375 23.34 80.3775 29.46 80.3775 36.48C80.3775 41.34 84.3975 44.64 89.4375 44.64C95.8575 44.64 99.6375 40.68 99.6375 39.48C99.6375 39.06 99.2775 38.76 98.8575 38.76C98.3775 38.76 97.5375 39.42 95.6775 39.42C92.0175 39.42 90.0975 37.08 90.0975 34.08C90.0975 28.26 95.0175 22.92 95.0175 18.84C95.0175 16.44 93.4575 14.88 90.4575 14.88C85.0575 14.88 81.0375 19.26 80.7975 19.26C80.5575 19.26 80.3175 14.88 74.9775 14.88C73.8375 14.88 73.2975 15.3 73.2975 15.9C73.2975 20.7 67.8375 29.34 67.8375 33.66C67.8375 35.82 71.7375 36.54 74.5575 36.54C75.5175 36.54 75.6975 36 75.6975 35.1C75.6975 32.52 78.1575 27.3 80.2575 24C81.9975 21.3 83.9775 19.98 84.8775 19.98C85.5375 19.98 85.8375 20.4 85.8375 20.94ZM112.936 4.98C112.936 3.3 109.576 0.599998 107.056 0.599998C105.916 0.599998 105.376 1.02 105.376 1.62C105.376 6.42 93.7359 29.34 93.7359 33.66C93.7359 35.82 97.6359 36.54 100.456 36.54C101.296 36.54 101.536 36.18 101.596 35.28C101.716 33.6 103.096 29.22 103.816 29.22C104.956 29.22 105.916 36.54 109.216 36.54C113.416 36.54 117.496 31.92 117.496 29.94C117.496 29.4 117.256 29.16 116.656 29.16C116.056 29.16 115.756 29.52 114.436 29.52C110.056 29.52 107.716 26.28 107.716 26.28C112.036 25.68 120.856 20.46 120.856 16.92C120.856 15.06 116.476 14.88 114.256 14.88C113.656 14.88 113.236 15.12 113.056 15.66C112.276 18.78 108.736 22.56 106.396 22.56C106.276 22.56 106.156 22.5 106.156 22.32C106.156 21.66 112.936 7.62 112.936 4.98ZM132.871 16.68C132.871 16.5 137.191 6.84 137.191 4.98C137.191 3.24 134.491 0.599998 131.371 0.599998C130.231 0.599998 129.691 1.02 129.691 1.62C129.691 6.36 118.111 29.34 118.111 33.66C118.111 34.86 120.091 36.54 120.991 36.54C122.131 36.54 123.931 34.32 124.531 34.32C124.951 34.32 126.091 36.66 129.871 36.66C137.311 36.66 144.031 28.86 144.031 20.64C144.031 17.04 142.051 14.82 138.331 14.82C135.391 14.82 133.291 16.8 133.051 16.8C132.931 16.8 132.871 16.74 132.871 16.68ZM128.551 31.32C128.011 31.32 127.591 31.02 127.591 30.3C127.591 27.66 132.451 19.56 134.911 19.56C135.511 19.56 135.991 19.98 135.991 20.7C135.991 24.54 131.791 31.32 128.551 31.32ZM167.529 35.82C167.529 35.1 167.109 34.92 167.109 33.12C167.109 25.74 171.789 20.4 171.789 19.26C171.789 17.88 168.069 14.88 162.909 14.88C153.129 14.88 145.209 23.34 145.209 31.14C145.209 34.5 147.129 36.54 150.189 36.54C155.649 36.54 158.709 33.18 159.429 33.18C159.849 33.18 161.769 36.54 166.629 36.54C167.229 36.54 167.529 36.24 167.529 35.82ZM162.429 18.9C162.909 18.9 163.149 19.14 163.149 19.68C163.149 21 158.169 30.78 154.989 30.78C154.269 30.78 153.909 30.3 153.909 29.7C153.909 25.8 158.769 18.9 162.429 18.9ZM188.142 20.94C188.142 23.34 182.682 29.46 182.682 36.48C182.682 41.34 186.702 44.64 191.742 44.64C198.162 44.64 201.942 40.68 201.942 39.48C201.942 39.06 201.582 38.76 201.162 38.76C200.682 38.76 199.842 39.42 197.982 39.42C194.322 39.42 192.402 37.08 192.402 34.08C192.402 28.26 197.322 22.92 197.322 18.84C197.322 16.44 195.762 14.88 192.762 14.88C187.362 14.88 183.342 19.26 183.102 19.26C182.862 19.26 182.622 14.88 177.282 14.88C176.142 14.88 175.602 15.3 175.602 15.9C175.602 20.7 170.142 29.34 170.142 33.66C170.142 35.82 174.042 36.54 176.862 36.54C177.822 36.54 178.002 36 178.002 35.1C178.002 32.52 180.462 27.3 182.562 24C184.302 21.3 186.282 19.98 187.182 19.98C187.842 19.98 188.142 20.4 188.142 20.94ZM213.981 19.26C214.581 19.26 214.941 19.5 214.941 20.16C214.941 21.78 209.781 31.14 206.721 31.14C206.061 31.14 205.701 30.66 205.701 30.06C205.701 26.16 210.321 19.26 213.981 19.26ZM223.821 19.8C226.701 13.26 229.521 6.72 229.521 4.98C229.521 3.3 226.221 0.599998 223.701 0.599998C222.561 0.599998 222.021 1.02 222.021 1.62C222.021 3.72 219.621 9.72 217.101 15.72C217.041 15.84 216.921 15.9 216.801 15.9C216.621 15.9 215.121 14.88 212.781 14.88C205.581 14.88 197.241 23.1 197.241 31.14C197.241 34.5 199.461 36.54 202.461 36.54C207.381 36.54 210.981 33.18 211.761 33.18C212.181 33.18 214.101 36.54 218.901 36.54C219.501 36.54 219.801 36.24 219.801 35.82C219.801 35.1 219.381 34.92 219.381 32.88C219.381 29.4 221.721 24.6 223.821 19.8Z" fill="#1FB79B"/>
</svg>
