<svg width="234" height="267" viewBox="0 0 234 267" fill="none" xmlns="http://www.w3.org/2000/svg">
<path fill-rule="evenodd" clip-rule="evenodd" d="M14.1256 171.823C14.1256 171.823 -14.1748 133.151 9.33964 91.2834C30.2031 54.1355 54.5279 56.6748 72.3745 71.7497C79.9757 78.1702 101.891 72.5409 120.543 34.7417C145.98 -16.8063 234.153 14.4577 218.076 93.7656C210.296 132.145 238.329 132.443 222.3 170.807L14.1256 171.823Z" fill="#BACAC2"/>
<path fill-rule="evenodd" clip-rule="evenodd" d="M219.33 87.1306C219.33 87.1306 247.63 125.802 224.116 167.67C203.252 204.818 178.927 202.279 161.081 187.204C153.48 180.783 131.565 186.412 112.912 224.212C87.4756 275.76 -0.697345 244.496 15.3793 165.188C23.1594 126.808 -3.96313 125.495 12.0656 87.1306L219.33 87.1306Z" fill="#BACAC2"/>
<mask id="mask0_16_272" style="mask-type:alpha" maskUnits="userSpaceOnUse" x="6" y="87" width="228" height="121">
<path fill-rule="evenodd" clip-rule="evenodd" d="M219.143 87.4692C219.143 87.4692 247.443 116.037 223.929 146.967C203.066 174.409 178.741 172.533 160.894 161.397C153.293 156.654 131.378 160.812 112.726 188.736C87.2891 226.817 -0.88393 203.721 15.1927 145.133C22.9728 116.781 -4.32878 115.81 11.7 87.4692L219.143 87.4692Z" fill="white"/>
</mask>
<g mask="url(#mask0_16_272)">
</g>
<path fill-rule="evenodd" clip-rule="evenodd" d="M92.7776 49.2956C80.8764 59.9724 65.0488 61.6226 57.4259 52.9814C49.8028 44.3402 53.271 28.6799 65.1722 18.003C77.0736 7.3262 92.9011 5.67597 100.524 14.3172C108.147 22.9583 104.679 38.6187 92.7776 49.2956" fill="#BACAC2"/>
<path fill-rule="evenodd" clip-rule="evenodd" d="M32.2335 50.4244C28.7804 46.6827 28.2467 41.7066 31.0414 39.3099C33.8361 36.9133 38.9009 38.0037 42.354 41.7454C45.807 45.4871 46.3408 50.4632 43.546 52.8598C40.7513 55.2565 35.6866 54.1661 32.2335 50.4244" fill="#BACAC2"/>
<path fill-rule="evenodd" clip-rule="evenodd" d="M216.039 34.7507C214.891 29.7669 216.928 25.0698 220.587 24.2596C224.247 23.4494 228.145 26.8327 229.292 31.8166C230.44 36.8004 228.404 41.4974 224.744 42.3076C221.084 43.1179 217.187 39.7345 216.039 34.7507" fill="#BACAC2"/>
<path d="M104.259 77.7814L104.536 78.1051L104.899 78.5235C105.159 78.7998 105.412 79.0919 105.696 79.3603C106.24 79.9287 106.832 80.4813 107.432 81.0418C108.631 82.147 109.886 83.1891 111.196 84.1601C112.53 85.1469 113.927 86.0627 115.339 86.9627C116.105 87.389 116.776 87.839 117.518 88.2495L119.23 89.1968C119.475 89.3073 119.759 89.3231 120.019 89.2442C120.572 89.0784 123.744 85.9364 124.754 84.7759C126.995 82.2102 130.389 78.8314 132.22 75.9578L134.303 78.7761C133.009 82.297 131.296 85.6443 129.197 88.7547C128.069 90.4284 126.711 91.9441 125.173 93.2625C124.249 94.044 123.2 94.6677 122.071 95.1177C120.651 95.6861 119.088 95.8045 117.589 95.4571C117.202 95.3624 116.823 95.2361 116.46 95.0782L115.75 94.7703L114.471 94.1861C113.611 93.7993 112.783 93.3493 111.946 92.9309C110.273 92.0388 108.647 91.052 107.085 89.9863C105.506 88.9047 103.991 87.7284 102.547 86.4653C101.797 85.8101 101.126 85.1469 100.44 84.4285C100.101 84.0733 99.7533 83.7023 99.4219 83.3154L98.9247 82.7154C98.7511 82.4944 98.6169 82.3286 98.3644 81.9891L104.259 77.7814Z" fill="#FFB573"/>
<path d="M131.928 76.3841L135.59 68.5527L139.086 74.821C139.086 74.821 136.789 78.7761 134.295 78.7682L131.928 76.3841Z" fill="#FFB573"/>
<path d="M139.709 65.3002L143.402 70.0526L139.086 74.813L135.59 68.5527L139.709 65.3002Z" fill="#FFB573"/>
<path fill-rule="evenodd" clip-rule="evenodd" d="M138.423 76.9761H144.239C144.578 76.9761 144.862 76.7155 144.894 76.3761L146.117 62.4265C146.149 62.0397 145.849 61.7081 145.462 61.7081H139.646C139.307 61.7081 139.023 61.9686 138.991 62.3081L137.768 76.2577C137.736 76.6445 138.036 76.9761 138.423 76.9761Z" fill="#655EB0"/>
<path opacity="0.3" d="M138.486 75.5788H144.31L145.399 63.1134H139.575L138.486 75.5788Z" fill="white"/>
<path d="M138.107 73.8104V73.8104L139.141 73.2815C139.662 73.0131 140.151 72.6736 140.577 72.271L140.767 71.5842C140.538 71.2052 140.088 71.0237 139.67 71.1421L138.809 71.3789L134.548 71.7026L134.445 73.5025L135.692 75.4367L136.126 75.4525C137.097 75.4762 137.949 74.7815 138.107 73.8104Z" fill="#FFB573"/>
<path fill-rule="evenodd" clip-rule="evenodd" d="M96.8257 70.1316C99.785 69.5948 120.659 87.7047 120.659 87.7047L114.472 96.7833C114.472 96.7833 91.6487 80.8839 92.3432 77.0471C93.0771 73.0367 92.5168 70.9131 96.8257 70.1316Z" fill="#EC744A"/>
<path opacity="0.2" d="M99.4615 75.9498L99.2327 85.4548C101.608 87.2942 110.155 93.8545 110.155 93.8545L99.4615 75.9498Z" fill="black"/>
<path d="M82.9124 258.297L89.9124 258.983L92.1299 242.744L85.13 242.058L82.9124 258.297Z" fill="#FFB573"/>
<path d="M13.9943 163.01L12.2029 169.831L27.3471 176.36L30.488 169.436L13.9943 163.01Z" fill="#FFB573"/>
<path fill-rule="evenodd" clip-rule="evenodd" d="M96.652 260.009C96.1312 260.325 95.5235 260.459 94.9237 260.388C94.174 260.349 93.4401 260.238 92.722 260.057C92.6509 260.049 92.5957 259.994 92.5878 259.923C92.5799 259.852 92.6194 259.781 92.6825 259.749L92.6829 259.749C93.0006 259.598 95.8553 258.241 96.7073 258.746C96.873 258.841 96.9756 259.015 96.9756 259.204C97.0071 259.512 96.8809 259.812 96.652 260.009ZM96.5021 259.046C96.4074 258.991 96.3048 258.967 96.1943 258.975L96.218 258.967C95.1841 259.086 94.1819 259.386 93.2507 259.852C94.8053 260.159 95.9733 260.128 96.4074 259.757C96.5573 259.623 96.6283 259.425 96.6125 259.228C96.6125 259.157 96.5731 259.086 96.5021 259.046Z" fill="#1FB79B"/>
<path fill-rule="evenodd" clip-rule="evenodd" d="M92.8088 260.065L92.7457 260.081C92.6983 260.081 92.6431 260.065 92.6194 260.025C92.58 259.986 92.5642 259.923 92.58 259.867C92.5811 259.862 92.5831 259.848 92.5862 259.826C92.6285 259.531 92.8716 257.837 93.7164 257.183C93.9768 256.97 94.324 256.891 94.6555 256.947C95.1132 257.01 95.2158 257.254 95.2631 257.436C95.3736 258.241 93.6611 259.71 92.8088 260.065ZM94.5925 257.246L94.4899 257.27L94.5057 257.262C94.2926 257.231 94.0716 257.286 93.898 257.412C93.3535 258.012 93.022 258.77 92.9352 259.567C93.8112 259.102 94.9792 257.941 94.9082 257.452C94.9082 257.412 94.9003 257.294 94.5925 257.246Z" fill="#1FB79B"/>
<path fill-rule="evenodd" clip-rule="evenodd" d="M89.5653 256.157L83.2204 256.418C82.9363 256.418 82.6995 256.639 82.6759 256.923L81.1606 265.733C81.1291 266.365 81.6105 266.901 82.2418 266.941C82.2892 266.941 82.3286 266.941 82.376 266.941C85.1302 266.799 86.456 266.594 89.9441 266.475C92.0828 266.404 98.6566 267.178 101.545 266.515C104.433 265.851 103.92 262.954 102.658 262.97C98.6013 263.049 93.9215 260.404 91.5698 257.31C91.2305 257.057 90.0073 256.133 89.5653 256.157Z" fill="#EC744A"/>
<path fill-rule="evenodd" clip-rule="evenodd" d="M15.4227 170.723L18.6425 165.252C18.7924 165.015 18.7372 164.7 18.5162 164.518L11.9345 158.471C11.4216 158.1 10.7113 158.21 10.3325 158.723C10.3088 158.755 10.2852 158.795 10.2615 158.834C8.88833 161.226 8.34381 162.45 6.5445 165.45C5.44755 167.289 1.22549 172.389 0.22324 175.176C-0.786899 177.962 1.91996 179.099 2.59075 178.033C4.7294 174.584 9.48021 172.081 13.355 171.789C13.7733 171.639 15.2017 171.11 15.4227 170.723Z" fill="#EC744A"/>
<path opacity="0.2" d="M92.13 242.744L90.9936 251.121L83.9858 250.434L85.1222 242.066L92.13 242.744Z" fill="black"/>
<path opacity="0.2" d="M35.136 171.126L31.9083 178.428L22.1542 174.118L24.6401 167.163L35.136 171.126Z" fill="black"/>
<path fill-rule="evenodd" clip-rule="evenodd" d="M101.3 78.4919C105.301 85.289 100.408 91.0362 96.3284 111.372L69.9464 111.443C70.3725 100.486 70.3331 91.6204 65.6533 70.0685C65.2193 68.1027 66.4582 66.1607 68.4233 65.7265C68.6758 65.6712 68.9362 65.6396 69.1967 65.6396C71.3748 65.6396 74.1211 65.7186 76.899 66.0028C81.2947 66.358 85.6588 67.0212 89.9597 67.9764C93.6215 68.8606 94.5133 69.3422 96.8334 70.1237C98.1829 70.5895 99.8165 74.2841 101.3 78.4919Z" fill="#EC744A"/>
<path fill-rule="evenodd" clip-rule="evenodd" d="M97.2991 112.746C97.2991 112.746 112.112 155.589 111.749 176.194C111.544 187.996 110.66 209.99 107.101 225.455C104.196 238.079 92.3588 246.139 92.3588 246.139L82.8651 245.578C82.8651 245.578 77.7434 226.316 78.6352 218.65C80.4108 203.39 85.6667 191.928 85.0353 177.915C84.0252 154.966 77.2383 112.383 77.2383 112.383L97.2991 112.746Z" fill="#1FB79B"/>
<path d="M80.9869 248.049L94.3555 248.839L95.5787 244.821L80.6318 243.439L80.9869 248.049Z" fill="#263238"/>
<path opacity="0.2" d="M82.6757 199.301C82.6914 199.285 82.7072 199.222 82.7467 199.23C91.1513 200.051 96.9675 187.917 95.5786 171.347L91.1198 129.111L82.6757 199.301Z" fill="black"/>
<path fill-rule="evenodd" clip-rule="evenodd" d="M90.6542 112.391C90.6542 112.391 102.421 187.728 77.9407 196.207C65.022 201.101 54.1551 195.796 41.2837 190.096C33.8418 186.804 24.5454 177.891 24.5454 177.891L28.1204 168.157C28.1204 168.157 36.5724 165.41 47.8259 167.163C60.3738 169.113 60.9025 172.665 65.3613 169.989C74.7367 146.803 58.606 128.48 69.5676 112.351L90.6542 112.391Z" fill="#1FB79B"/>
<path d="M28.8307 166.31L24.0483 178.933L27.568 181.625L33.25 166.602L28.8307 166.31Z" fill="#263238"/>
<path d="M26.8577 98.2359C25.6661 99.9964 19.621 98.8043 19.621 98.8043L18.3347 91.3125L25.7529 94.2887L26.8577 98.2359Z" fill="#FFB573"/>
<path d="M19.8261 90.9257L20.9862 98.7096L16.5195 99.3728C16.0223 99.4122 15.5725 99.0807 15.4699 98.5991L13.7653 93.0256C13.7022 92.7572 13.8679 92.4888 14.1362 92.4177L19.8261 90.9257Z" fill="#FFB573"/>
<path d="M17.8374 94.4545L20.3864 94.9045L22.7855 93.0887L21.8543 92.4256C21.223 91.9756 20.781 91.3125 20.6153 90.5546C20.4338 89.7415 20.3075 88.8652 20.2917 88.1468L20.2838 87.8784C20.2207 87.3889 19.8419 87.0021 19.3526 86.931L18.7213 87.3968C18.3188 88.2573 18.6108 89.2599 18.5556 89.9309L18.453 91.2335L17.4349 91.6756L17.8374 94.4545Z" fill="#FFB573"/>
<path d="M66.9239 68.5842L51.9928 89.1336L24.5533 94.5255V99.0253C24.5533 99.0253 50.3277 100.936 56.1123 97.557C61.8969 94.1781 71.6195 73.7472 71.6195 73.7472L66.9239 68.5842Z" fill="#FFB573"/>
<path d="M66.7502 29.104C60.4842 27.0041 53.2159 30.896 50.3512 36.8485C47.4865 42.8009 48.4888 50.1033 51.7165 55.8742C52.6872 57.611 53.8551 59.253 54.6443 61.0845C55.4335 62.916 55.8281 65.016 55.1888 66.9028C54.5496 68.7895 53.8788 69.9974 51.5429 69.6974C51.5429 69.6974 51.5113 68.4027 52.4346 68.5606V68.5606C52.4346 68.5606 50.5485 69.6106 49.8067 68.9237C50.659 70.25 52.9555 69.7685 53.6894 68.3711C54.7943 66.2791 52.7661 63.445 50.3986 63.4687C48.0311 63.4923 46.1055 65.8844 46.1844 68.2527C46.2633 70.6211 47.9995 72.721 50.1618 73.692C48.8834 73.9446 47.4786 73.1947 46.9736 71.9868C48.0469 74.7972 51.5508 76.0446 54.5102 75.492C57.4695 74.9393 59.9712 73.0368 62.2914 71.1184C65.4165 68.529 68.6758 65.2607 68.5811 61.2029C68.51 58.1794 66.5687 55.5821 64.9351 53.0401C63.3015 50.498 61.8731 47.3797 62.9069 44.5377C63.7829 42.1299 66.1662 40.6773 68.2733 39.2168C69.7885 38.1669 72.8663 35.8143 72.5032 33.6038C72.156 31.5118 68.5258 29.704 66.7502 29.104Z" fill="#263238"/>
<path fill-rule="evenodd" clip-rule="evenodd" d="M52.632 99.3806L48.4968 88.431L49.4438 88.5099C51.0063 88.6362 52.5058 87.8468 53.2712 86.4731C56.4121 80.8523 64.5801 66.579 66.8765 65.8764C70.1516 64.9054 73.5214 67.5264 74.7919 71.3947C75.7231 74.2446 66.1268 86.4652 61.6759 93.4124C57.7301 99.5622 52.632 99.3806 52.632 99.3806Z" fill="#EC744A"/>
<path fill-rule="evenodd" clip-rule="evenodd" d="M12.2895 174.41C12.2974 174.378 12.2974 174.323 12.2974 174.323C12.0843 173.518 12.9366 172.168 13.4733 171.41C13.5127 171.355 13.5759 171.331 13.639 171.347C13.7021 171.363 13.7574 171.41 13.7653 171.481C13.7664 171.488 13.7677 171.497 13.7694 171.507C13.8274 171.872 14.2124 174.3 13.5601 174.884C13.4101 175.026 13.1971 175.073 12.9998 175.01C12.6762 174.947 12.4079 174.718 12.2895 174.41ZM13.5159 171.969C13.5148 171.962 13.5138 171.954 13.5127 171.947L13.5206 171.963C13.5191 171.965 13.5175 171.967 13.5159 171.969ZM13.5159 171.969C12.7854 173 12.4871 173.866 12.6289 174.291C12.7078 174.497 12.8893 174.647 13.1024 174.686C13.1892 174.718 13.2839 174.71 13.3549 174.647C13.7152 174.333 13.6557 172.977 13.5159 171.969Z" fill="#1FB79B"/>
<path fill-rule="evenodd" clip-rule="evenodd" d="M15.2174 174.283C14.5072 174.118 13.7101 172.665 13.497 171.812C13.4655 171.726 13.4339 171.631 13.426 171.544C13.4181 171.481 13.4418 171.426 13.4891 171.386C13.5444 171.355 13.6075 171.363 13.6549 171.394C13.7338 171.426 15.5962 172.231 15.9198 173.21C16.0145 173.455 15.9987 173.723 15.8724 173.952C15.754 174.197 15.4857 174.339 15.2174 174.283ZM15.5806 173.778C15.6595 173.652 15.6832 173.502 15.6437 173.36C15.6279 173.344 15.62 173.328 15.6279 173.32C15.4385 172.72 14.452 172.144 13.8444 171.836C14.0732 172.665 14.8151 173.849 15.2965 173.952C15.3754 173.96 15.478 173.96 15.5806 173.778Z" fill="#1FB79B"/>
<path d="M69.8519 110.109L69.1259 112.675C69.0233 112.872 69.26 113.078 69.5915 113.078L96.8179 113.038C97.0783 113.054 97.2914 112.912 97.3072 112.754L97.5597 110.18C97.5676 110.007 97.3466 109.849 97.0625 109.857L70.3175 109.888C70.1281 109.872 69.9545 109.959 69.8519 110.109Z" fill="#407BFF"/>
<path fill-rule="evenodd" clip-rule="evenodd" d="M69.8519 110.109L69.1259 112.675C69.0233 112.872 69.26 113.078 69.5915 113.078L96.8179 113.038C97.0783 113.054 97.2914 112.912 97.3072 112.754L97.5597 110.18C97.5676 110.007 97.3466 109.849 97.0625 109.857L70.3175 109.888C70.1281 109.872 69.9545 109.959 69.8519 110.109Z" fill="white"/>
<path fill-rule="evenodd" clip-rule="evenodd" d="M75.0445 113.306H74.2554C74.1054 113.299 73.987 113.228 73.9949 113.133L74.3501 109.793C74.358 109.699 74.4921 109.62 74.65 109.62L75.4391 109.612C75.5891 109.62 75.7075 109.691 75.6996 109.793L75.3444 113.125C75.3365 113.228 75.1945 113.314 75.0445 113.306Z" fill="#1FB79B"/>
<path fill-rule="evenodd" clip-rule="evenodd" d="M94.7027 113.306H93.9136C93.7636 113.299 93.6453 113.228 93.6531 113.133L94.0083 109.801C94.0162 109.699 94.1503 109.62 94.3003 109.62H95.0894C95.2394 109.628 95.3577 109.699 95.3498 109.793L94.9947 113.125C94.9868 113.228 94.8606 113.306 94.7027 113.306Z" fill="#1FB79B"/>
<path fill-rule="evenodd" clip-rule="evenodd" d="M85.6983 113.291H84.9092C84.7592 113.283 84.6409 113.212 84.6487 113.117L85.0039 109.786C85.0118 109.683 85.1459 109.604 85.2959 109.604H86.085C86.235 109.612 86.3534 109.683 86.3455 109.778L85.9903 113.109C85.9903 113.212 85.8562 113.291 85.6983 113.291Z" fill="#1FB79B"/>
<path d="M78.1301 51.6349C78.9667 55.9295 79.7874 63.6977 76.8754 66.0423C76.8754 66.0423 78.0354 70.4553 85.8403 71.6237C94.4581 72.9263 89.9361 68.0159 89.9361 68.0159C85.2485 66.1528 85.3589 62.7661 86.1718 59.6399L78.1301 51.6349Z" fill="#FFB573"/>
<path d="M76.899 66.0028C81.2947 66.3502 84.9643 66.7607 89.2653 67.7238L95.1683 69.4764C96.2179 71.5921 94.4975 75.942 89.5573 76.7709C89.5573 76.7709 77.1121 78.4919 73.4424 65.6713L76.899 66.0028Z" fill="#FFB573"/>
<path opacity="0.2" d="M81.4051 54.911L86.1638 59.6477C85.9665 60.3819 85.8324 61.1319 85.7692 61.8897C83.9778 61.3608 81.0895 59.3793 80.8922 57.4846C80.8843 56.6004 81.0579 55.7241 81.4051 54.911Z" fill="black"/>
<path d="M72.8584 46.2034C74.9655 52.8821 75.7152 55.7636 80.0399 58.3925C86.5032 62.3397 94.2765 58.2978 94.1739 51.1217C94.1108 44.664 90.6779 34.8275 83.3386 33.7775C78.1222 32.996 73.2609 36.5958 72.4796 41.8141C72.2665 43.2825 72.3928 44.7903 72.8584 46.2034Z" fill="#FFB573"/>
<path d="M88.7917 45.1614C89.5415 46.3377 90.449 47.4113 91.4907 48.335C90.9935 48.856 90.2912 49.1402 89.573 49.1007L88.7917 45.1614Z" fill="#ED893E"/>
<path d="M88.0422 52.6769C88.3105 52.6453 88.5788 52.598 88.8392 52.5269C88.926 52.5032 88.9734 52.4243 88.9576 52.3375V52.3296C88.9339 52.2427 88.8471 52.1875 88.7603 52.2032C87.3793 52.5901 85.8877 52.2822 84.7671 51.3822C84.6961 51.3191 84.5935 51.327 84.5303 51.3901C84.4672 51.4612 84.4751 51.5638 84.5382 51.627C85.5168 52.4322 86.7795 52.8111 88.0422 52.6769Z" fill="#263238"/>
<path fill-rule="evenodd" clip-rule="evenodd" d="M70.5619 32.8696C68.8179 33.9827 67.6736 35.98 67.6026 38.0484C67.5868 38.4431 67.6183 38.8457 67.7841 39.201C67.9577 39.5562 68.297 39.8483 68.6837 39.872C69.2835 39.9036 69.7254 39.3431 70.0569 38.8378C70.5619 38.0563 71.0749 37.2826 71.58 36.5011C72.0772 35.7353 72.9058 34.8511 73.182 33.9827C73.6871 32.3881 71.5011 32.2696 70.5619 32.8696Z" fill="#1FB79B"/>
<path d="M71.3117 34.4407C67.1134 39.2879 65.243 52.7007 77.5146 56.4426C79.5665 54.8164 76.252 51.8638 74.8472 48.114C73.9239 45.6667 78.6037 41.0958 80.4267 39.2169C82.2497 37.3459 83.9306 34.6302 86.5033 35.0644C87.182 35.1749 87.9001 35.4039 88.5236 35.1197C90.5675 34.196 89.5732 32.9724 88.5472 32.1119C87.0399 30.8566 84.9092 30.2803 82.9836 30.0751C78.7221 29.6172 74.1607 31.1566 71.3117 34.4407Z" fill="#263238"/>
<path d="M84.9407 32.8144C89.8652 36.9274 83.3387 37.03 79.9137 39.6352C76.6071 42.1378 78.9273 46.235 73.332 48.1376C68.7627 49.4717 67.7052 48.6744 66.4426 47.7902C66.4426 47.7902 71.6195 47.135 72.385 41.3167C72.7717 38.3168 79.3061 28.0461 84.9407 32.8144Z" fill="#263238"/>
<path d="M72.1166 51.8164C72.8899 52.9296 74.0658 53.6953 75.3995 53.9479C77.1672 54.2558 77.8459 52.6375 77.2383 51.0586C76.6622 49.6376 75.0602 47.7666 73.3556 48.1692C72.1245 48.485 71.3905 49.7402 71.6983 50.9638C71.7772 51.2717 71.9193 51.5638 72.1166 51.8164Z" fill="#FFB573"/>
<path d="M84.0963 33.2328C85.0512 35.6643 87.8054 35.3407 89.8415 37.8827C91.0963 39.4379 93.5506 34.5907 90.2045 32.6723C86.8584 30.7461 82.5969 29.4277 84.0963 33.2328Z" fill="#263238"/>
<path d="M81.192 43.4956C81.3341 43.5114 81.4682 43.4325 81.5235 43.2982C82.1706 41.8536 84.112 41.4983 84.1356 41.4904C84.3172 41.4588 84.4355 41.2852 84.404 41.1036C84.3724 40.922 84.1988 40.8036 84.0173 40.8352C83.9226 40.851 81.705 41.3009 80.9237 43.0377C80.8448 43.2035 80.9158 43.4009 81.0816 43.4798V43.4798L81.192 43.4956Z" fill="#263238"/>
<path d="M91.4513 40.5905C91.5697 40.5984 91.6802 40.5431 91.7433 40.4405C91.8459 40.2905 91.8064 40.0852 91.6565 39.9826C91.6565 39.9826 91.6565 39.9826 91.6486 39.9826C90.7647 39.3747 89.6362 39.2247 88.6182 39.5958C88.4445 39.6668 88.3656 39.8642 88.4445 40.0379C88.5156 40.2115 88.7129 40.2905 88.8865 40.2115V40.2115V40.2115C89.6914 39.9273 90.5832 40.0536 91.2777 40.5431C91.3329 40.5668 91.3961 40.5905 91.4513 40.5905Z" fill="#263238"/>
<path d="M123.894 83.8048L119.277 86.4337L114.471 96.7755C114.471 96.7755 119.112 99.728 122.766 97.336C126.427 94.9439 123.894 83.8048 123.894 83.8048Z" fill="#407BFF"/>
<path fill-rule="evenodd" clip-rule="evenodd" d="M123.894 83.8048L119.277 86.4337L114.471 96.7755C114.471 96.7755 119.112 99.728 122.766 97.336C126.427 94.9439 123.894 83.8048 123.894 83.8048Z" fill="#FFE2D3"/>
<path d="M43.0278 87.0021L48.4967 88.5494L53.6816 99.278C53.6816 99.278 49.5069 103.13 45.0007 99.4517C41.6231 96.6886 43.0278 87.0021 43.0278 87.0021Z" fill="#FFE1D3"/>
<g opacity="0.5">
<path d="M43.0278 87.0021L48.4967 88.5494L53.6816 99.278C53.6816 99.278 49.5069 103.13 45.0007 99.4517C41.6231 96.6886 43.0278 87.0021 43.0278 87.0021Z" fill="#FFE1D3"/>
</g>
<path d="M91.1357 43.2667C91.5145 43.1956 91.9091 43.6219 92.0117 44.2061C92.1143 44.7903 91.8854 45.3271 91.5066 45.3903C91.1278 45.4534 90.7332 45.035 90.6306 44.4508C90.5202 43.8824 90.7569 43.3377 91.1357 43.2667Z" fill="#263238"/>
<path d="M92.3036 42.6904L90.9698 43.3457C91.7748 43.9141 92.3036 42.6904 92.3036 42.6904Z" fill="#263238"/>
<path d="M84.5302 44.6246C84.909 44.5535 85.3036 44.9798 85.4062 45.564C85.5088 46.1482 85.2799 46.685 84.9011 46.7482C84.5223 46.8113 84.1277 46.3929 84.0251 45.8087C83.9146 45.2403 84.1514 44.6956 84.5302 44.6246Z" fill="#263238"/>
<path d="M85.6982 44.0482L84.3645 44.7035C85.1694 45.2719 85.6982 44.0482 85.6982 44.0482Z" fill="#263238"/>
<path d="M51.1326 74.8289C50.3828 74.8289 49.641 74.6947 48.9623 74.4184C46.5159 73.4158 45.3795 70.8737 45.8372 67.4318C45.8688 67.2186 46.0661 67.0607 46.2792 67.0923C46.4922 67.1239 46.6501 67.3212 46.6185 67.5344C46.2081 70.5895 47.1709 72.8316 49.2622 73.6842C51.5192 74.6078 54.5181 73.6842 56.0885 71.5843C58.0615 68.9475 57.4222 65.2055 54.3366 61.3214C46.2555 51.177 46.8 45.7851 47.9364 41.5221C49.5937 35.3328 54.4471 28.2436 68.1786 29.6014C68.3917 29.6251 68.5495 29.8146 68.5338 30.0356C68.5101 30.2488 68.3286 30.4066 68.0997 30.3909C54.9285 29.0804 50.2724 35.838 48.694 41.7273C47.5497 45.9903 47.092 50.9718 54.9442 60.832C59.6793 66.7765 57.7616 70.6685 56.712 72.0579C55.4177 73.8105 53.2239 74.8289 51.1326 74.8289Z" fill="#263238"/>
<path d="M200.587 119.254L160.14 119.068C155.275 119.046 151.351 115.083 151.369 110.217L151.799 8.77834C151.821 3.90801 155.782 -0.0217818 160.651 9.08639e-05L201.097 0.186008C205.962 0.207881 209.887 4.17049 209.869 9.03716L209.439 110.475C209.42 115.346 205.456 119.276 200.587 119.254Z" fill="#1FB79B"/>
<path d="M201.039 3.68926L193.197 3.6528C192.144 3.64916 191.287 4.535 191.284 5.63593L191.276 7.05765C191.273 8.15858 190.416 9.04442 189.363 9.04078L174.076 8.97151C173.023 8.96787 172.177 8.07109 172.181 6.97016L172.188 5.54844C172.192 4.44751 171.343 3.55437 170.293 3.54708L167.534 3.5325L160.672 3.49969C157.265 3.48511 154.488 6.23743 154.474 9.64592L154.055 108.656C154.04 112.065 156.788 114.839 160.195 114.854L200.562 115.04C203.969 115.054 206.746 112.302 206.76 108.893L207.179 9.88287C207.198 6.47802 204.446 3.70384 201.039 3.68926Z" fill="white"/>
<ellipse cx="180.619" cy="59.9836" rx="10.9687" ry="10.9726" fill="#EC744A"/>
<path d="M174.831 61.0696C174.931 61.2271 175.535 61.8771 176.324 62.7803C177.266 63.8596 178.328 65.0757 178.453 65.2134C178.681 65.4665 178.849 65.2919 179.191 64.6295C179.664 63.7124 180.639 61.7022 182.009 59.8675C183.38 58.0328 185.435 56.0084 185.925 55.6287C186.414 55.2491 186.643 54.9961 186.316 54.8695C185.99 54.743 183.442 56.4901 181.955 58.0516C180.359 59.7282 178.629 62.4655 178.2 62.53C177.857 62.5817 176.196 61.3736 175.724 61.0898C175.177 60.7602 174.571 60.6598 174.831 61.0696Z" fill="white"/>
<path fill-rule="evenodd" clip-rule="evenodd" d="M228.881 156.646C228.881 152.2 222.893 145.782 219.773 142.725C216.835 140.709 213.015 138.942 210.113 140.591C204.661 143.688 219.618 145.071 221.831 149.752C222.636 151.455 223.062 152.955 223.28 154.172C222.485 153.937 221.186 153.652 219.972 153.831C218.695 154.021 216.541 155.599 215.232 156.646C215.842 155.612 216.402 154.317 216.541 152.901C216.882 149.471 215.541 145.601 213.398 148.157C211.845 150.01 212.543 154.901 213.045 157.453C212.215 157.778 211.381 158.134 210.548 158.519C207.357 147.259 199.862 129.358 185.266 128.745C185.266 128.745 179.506 130.944 185.887 138.172C191.316 144.322 199.991 146.786 208.214 159.681C207.705 159.953 207.2 160.239 206.697 160.538C202.753 156.756 195.374 150.75 189.2 151.836C182.607 152.995 196.922 158.806 204.791 161.743C203.001 162.951 201.277 164.339 199.682 165.937C199.682 165.937 197.111 169.372 185.75 167.654C174.39 165.937 164.531 177.756 164.531 177.756L219.773 175.196C220.52 173.99 222.424 170.511 224.494 167.149C226.191 164.393 228.881 160.611 228.881 156.646Z" fill="#1FB79B"/>
<path fill-rule="evenodd" clip-rule="evenodd" d="M155.589 174.594C155.589 174.594 139.752 190.094 139.752 194.175C147.224 194.105 182.813 197.507 182.813 197.507C182.813 197.507 197.438 200.067 212.178 184.925C214.749 181.446 220.838 177.026 220.838 170.441C218.616 156.123 207.599 160.054 207.599 160.054L183.544 170.075L155.589 174.594Z" fill="#1FB79B"/>
<path fill-rule="evenodd" clip-rule="evenodd" d="M162.331 206.722H121.831C120.778 206.722 119.925 205.868 119.925 204.815V164.301C119.925 163.248 120.778 162.395 121.831 162.395H162.331C163.384 162.395 164.237 163.248 164.237 164.301V204.815C164.237 205.868 163.384 206.722 162.331 206.722" fill="#655EB0"/>
<path fill-rule="evenodd" clip-rule="evenodd" d="M157.747 198.892H126.415C125.465 198.892 124.695 198.122 124.695 197.171V191.437C124.695 190.486 125.465 189.716 126.415 189.716H157.747C158.697 189.716 159.467 190.486 159.467 191.437V197.171C159.467 198.122 158.697 198.892 157.747 198.892" fill="white"/>
<path fill-rule="evenodd" clip-rule="evenodd" d="M130.91 194.309L131.924 194.858L131.468 195.622L130.444 195.016L130.462 196.143H129.587L129.597 195.007L128.573 195.622L128.126 194.858L129.141 194.309L128.126 193.75L128.573 192.986L129.597 193.601L129.587 192.465H130.462L130.444 193.601L131.468 192.986L131.924 193.75L130.91 194.309Z" fill="white"/>
<path fill-rule="evenodd" clip-rule="evenodd" d="M136.937 194.309L137.952 194.858L137.496 195.622L136.472 195.016L136.491 196.144H135.615L135.625 195.007L134.601 195.622L134.154 194.858L135.168 194.309L134.154 193.75L134.601 192.986L135.625 193.601L135.615 192.465H136.491L136.472 193.601L137.496 192.986L137.952 193.75L136.937 194.309Z" fill="white"/>
<path fill-rule="evenodd" clip-rule="evenodd" d="M142.965 194.309L143.98 194.858L143.524 195.622L142.5 195.016L142.518 196.144H141.643L141.653 195.007L140.629 195.622L140.182 194.858L141.196 194.309L140.182 193.75L140.629 192.986L141.653 193.601L141.643 192.465H142.518L142.5 193.601L143.524 192.986L143.98 193.75L142.965 194.309Z" fill="white"/>
<path fill-rule="evenodd" clip-rule="evenodd" d="M148.993 194.309L150.008 194.858L149.552 195.622L148.528 195.016L148.546 196.143H147.671L147.68 195.007L146.656 195.622L146.21 194.858L147.224 194.309L146.21 193.75L146.656 192.986L147.68 193.601L147.671 192.465H148.546L148.528 193.601L149.552 192.986L150.008 193.75L148.993 194.309Z" fill="white"/>
<path fill-rule="evenodd" clip-rule="evenodd" d="M155.021 194.309L156.036 194.858L155.58 195.622L154.556 195.016L154.574 196.144H153.699L153.709 195.007L152.685 195.622L152.238 194.858L153.252 194.309L152.238 193.75L152.685 192.986L153.709 193.601L153.699 192.465H154.574L154.556 193.601L155.58 192.986L156.036 193.75L155.021 194.309Z" fill="white"/>
<path fill-rule="evenodd" clip-rule="evenodd" d="M152.019 176.11C152.019 181.6 147.569 186.051 142.081 186.051C136.592 186.051 132.143 181.6 132.143 176.11C132.143 170.619 136.592 166.169 142.081 166.169C147.569 166.169 152.019 170.619 152.019 176.11" fill="white"/>
<path fill-rule="evenodd" clip-rule="evenodd" d="M142.796 180.821H141.366L141.665 178.885C141.353 178.731 141.136 178.412 141.136 178.04C141.136 177.518 141.559 177.094 142.081 177.094C142.603 177.094 143.026 177.518 143.026 178.04C143.026 178.412 142.809 178.731 142.496 178.885L142.796 180.821ZM145.967 175.552H138.195C137.607 175.552 137.13 176.029 137.13 176.617V181.354C137.13 181.942 137.607 182.419 138.195 182.419H145.967C146.555 182.419 147.032 181.942 147.032 181.354V176.617C147.032 176.029 146.555 175.552 145.967 175.552V175.552Z" fill="#EC744A"/>
<path fill-rule="evenodd" clip-rule="evenodd" d="M139.845 174.794L139.698 174.065C139.439 172.771 140.28 171.506 141.574 171.246C142.868 170.986 144.132 171.828 144.391 173.122L144.538 173.851L145.908 173.575L145.761 172.847C145.35 170.797 143.348 169.464 141.299 169.876C139.249 170.288 137.917 172.29 138.329 174.34L138.475 175.069L139.845 174.794Z" fill="#EC744A"/>
<path fill-rule="evenodd" clip-rule="evenodd" d="M147.619 203.687H136.543C136.272 203.687 136.053 203.468 136.053 203.197C136.053 202.926 136.272 202.707 136.543 202.707H147.619C147.89 202.707 148.109 202.926 148.109 203.197C148.109 203.468 147.89 203.687 147.619 203.687" fill="white"/>
</svg>
